M48
;Layer_Color=9474304
;FILE_FORMAT=2:4
INCH,TZ
;TYPE=PLATED
T1F00S00C0.0100
T2F00S00C0.0197
T5F00S00C0.0354
T6F00S00C0.0409
T7F00S00C0.0433
;TYPE=NON_PLATED
T8F00S00C0.1201
%
T01
X35659Y8734
X37291Y8694
X38021Y8117
X39296Y7644
X40175Y7279
X40466Y7031
X40593Y6550
X35961Y14471
X35824Y16726
X35116
X37370Y17863
X34316Y17440
X34102Y17271
X24999Y17863
X23453Y16732
X22745
X22034Y17286
X21855Y17539
X22015Y14388
X23847Y14517
X23275Y8753
X24884Y8772
X25683Y8105
X26865Y7636
X27931Y7301
X29278Y7471
X29309Y7899
X29698
X30078Y7882
X29585Y7250
X28924Y7905
X31207Y6766
X33796Y7764
X21449Y7749
X17371Y8076
X16971Y8084
X16618
X16236Y8093
X15534Y7836
X14636Y7779
X13339Y8178
X12670Y8878
X11014Y8593
X9138Y7779
X9754Y14396
X11616Y14900
X11192Y16729
X10484Y16740
X10070Y17547
X9754Y17275
X12738Y17847
X16636Y19326
X16971Y19317
X17350Y19309
X16047Y20561
X18720Y22963
X18736Y23672
X14677Y28405
X13865Y28421
X12294Y28429
X11434Y28441
X11665Y32769
X12538
X13676Y32867
X14544Y32854
X25128Y27988
X24243Y23639
X23905Y23400
X24119Y22470
X24500Y22796
X24945Y22507
X23590Y21927
Y21608
X23573Y21007
X22777Y20561
X21656Y20347
X21750Y19002
X22165
X19971Y20940
Y21411
X20365Y21608
X20776Y21805
X21399Y23300
X21853
X22247
X22444Y23639
X22441Y25287
X28700Y25901
X28570Y23895
X29309Y22533
X30432Y23075
X30555Y23600
X33421Y23502
X33626Y22124
X34032
X34625
X34724Y22573
X34038Y24775
X33830Y26389
X33906Y28645
X32550Y27951
X31897Y26904
X32593Y20790
X30108Y19515
X29698Y19302
Y19786
X29218Y19778
X28700Y19786
X28300Y19533
X27734
Y19980
X35304Y20396
X36003
X36048Y19468
X35610Y19484
X36703Y19794
X38085Y20396
X36186Y22721
X35216Y22493
X35304Y27152
X36003Y26700
X38956Y25586
Y24877
T02
X37994Y5097
X38709
X39435
Y5900
X38709
X37995
X36891Y10155
X36171
Y10913
X36891
Y11677
X36159
X35016Y11691
Y10927
Y10169
X38677Y11135
Y11935
Y12715
X39480
Y11931
Y11135
X40885Y11069
X41585
Y11858
X40885
Y12655
X41585
Y13434
X40885
Y15067
X40902Y15932
Y16827
X33571Y18188
X33004Y18191
X32436Y18188
X30652Y16877
Y15982
X30635Y15117
Y13484
Y12705
Y11908
Y11119
X31813Y11131
Y11931
Y12710
X32616
Y11931
Y11131
X34296Y10927
Y10169
X34284Y11691
X28435Y11908
Y11119
X27294Y11123
Y11918
Y12702
X26491
Y11923
Y11123
X24520Y10919
X23800
Y10161
X24520
Y11683
X23788
X22645Y11697
X21913
X21925Y10933
X22645
Y10175
X21925
X20205Y11142
Y11942
Y12721
X19402
Y11942
Y11141
X28435Y12705
Y13484
Y15117
X28452Y15982
Y16877
X27123Y5868
X26397
X25683
X25682Y5065
X26397
X27123
X14896Y5000
X14169
X13455
X13455Y5803
X14169
X14896
X14845Y11138
Y11933
Y12717
X14042
Y11938
Y11138
X15924Y11153
Y11942
Y12738
Y13518
Y15151
X15941Y16016
Y16911
X17709Y16874
X18367Y16861
Y15966
X17709Y15978
X18351Y15101
Y13468
X17692Y13480
Y12701
X18351Y12688
Y11892
X17692Y11905
Y11116
X18351Y11103
X12259Y10927
X11539
Y10170
X12259
Y11692
X11527
X10346Y11706
X9614
X9626Y10941
X10346
Y10184
X9626
X7760Y11119
Y11947
Y12674
X6819
Y11947
Y11119
X5191Y11082
Y11871
Y12668
Y13447
Y15080
X5207Y15945
Y16841
Y18259
X15941Y18330
X17709Y18293
X18367Y18280
X24119Y20533
X24862Y20520
X25606
X26350
X27093
X28452Y18296
X30652
X32436Y18743
X33004Y18751
X33571Y18743
X40902Y18246
X41602
T05
X36003Y27558
X37003
X38003
T06
X34908Y3000
X35986
X37065
X38144
X37604Y4118
X36526
X35447
X34368
X33829Y3000
X25608Y3032
X24529
X23451
X22372
X21293
X21832Y4150
X22911
X23990
X25069
X12503
X11424
X10346
X9267
X9806Y3032
X10885
X11964
X13043
X8728
X8250Y25193
Y26271
Y27350
Y28429
Y29507
X7132Y28968
Y27889
Y26811
Y25732
T07
X24344Y31791
X26312
X29085Y31750
X31053
X36216Y31726
X38184
T08
X40908Y3559
X31069
X28372Y3591
X18533
X15806
X5968
X7691Y22433
Y32271
M30
