G04*
G04 #@! TF.GenerationSoftware,Altium Limited,Altium Designer,21.8.1 (53)*
G04*
G04 Layer_Color=8388736*
%FSLAX25Y25*%
%MOIN*%
G70*
G04*
G04 #@! TF.SameCoordinates,57A0437E-557E-4490-84B7-93440E4047FD*
G04*
G04*
G04 #@! TF.FilePolarity,Negative*
G04*
G01*
G75*
%ADD16O,0.03181X0.09087*%
%ADD17O,0.09087X0.03181*%
%ADD18R,0.06331X0.05937*%
%ADD19R,0.02000X0.06100*%
%ADD20R,0.06100X0.02000*%
%ADD21R,0.09874X0.17748*%
%ADD22R,0.02559X0.02953*%
%ADD23R,0.05709X0.11417*%
%ADD24R,0.05937X0.06331*%
%ADD25R,0.11811X0.06299*%
%ADD26R,0.24410X0.22835*%
%ADD27R,0.02953X0.02559*%
%ADD28R,0.01003X0.03575*%
%ADD29R,0.03575X0.01003*%
%ADD30R,0.14200X0.14200*%
%ADD31R,0.03937X0.01968*%
%ADD32R,0.05150X0.05150*%
%ADD33R,0.09480X0.09087*%
%ADD34R,0.07315X0.03575*%
%ADD35C,0.06260*%
%ADD36R,0.06260X0.06260*%
%ADD37C,0.12008*%
%ADD38R,0.06260X0.06260*%
%ADD39C,0.07906*%
%ADD40R,0.07906X0.07906*%
%ADD41R,0.08299X0.08299*%
%ADD42C,0.08299*%
%ADD43O,0.06921X0.06134*%
%ADD44C,0.04000*%
%ADD45C,0.05937*%
G36*
X421900Y235630D02*
X421986Y235618D01*
X422072Y235600D01*
X422155Y235573D01*
X422236Y235540D01*
X422313Y235500D01*
X422387Y235453D01*
X422456Y235400D01*
X422520Y235341D01*
X422579Y235276D01*
X422633Y235207D01*
X422679Y235133D01*
X422720Y235056D01*
X422753Y234975D01*
X422779Y234892D01*
X422798Y234807D01*
X422810Y234720D01*
X422814Y234633D01*
Y227999D01*
Y227607D01*
X422813Y227586D01*
Y227564D01*
X422811Y227542D01*
X422810Y227520D01*
X422807Y227498D01*
X422805Y227477D01*
X422801Y227455D01*
X422798Y227434D01*
X422794Y227412D01*
X422790Y227391D01*
X422784Y227370D01*
X422779Y227348D01*
X422773Y227327D01*
X422767Y227306D01*
X422760Y227286D01*
X422753Y227265D01*
X422745Y227245D01*
X422737Y227224D01*
X422438Y226501D01*
X422429Y226481D01*
X422420Y226461D01*
X422410Y226441D01*
X422401Y226422D01*
X422390Y226403D01*
X422380Y226383D01*
X422368Y226365D01*
X422357Y226346D01*
X422345Y226328D01*
X422333Y226310D01*
X422319Y226292D01*
X422307Y226274D01*
X422293Y226258D01*
X422280Y226240D01*
X422265Y226224D01*
X422251Y226208D01*
X422235Y226192D01*
X422221Y226176D01*
X421667Y225622D01*
X421651Y225608D01*
X421635Y225592D01*
X421619Y225578D01*
X421602Y225563D01*
X421585Y225550D01*
X421568Y225536D01*
X421551Y225523D01*
X421533Y225510D01*
X421515Y225499D01*
X421497Y225486D01*
X421478Y225475D01*
X421460Y225463D01*
X421440Y225453D01*
X421421Y225442D01*
X421402Y225433D01*
X421382Y225423D01*
X421362Y225414D01*
X421342Y225405D01*
X420619Y225106D01*
X420598Y225098D01*
X420578Y225090D01*
X420557Y225083D01*
X420537Y225076D01*
X420515Y225070D01*
X420495Y225064D01*
X420473Y225059D01*
X420452Y225053D01*
X420431Y225049D01*
X420409Y225045D01*
X420388Y225042D01*
X420366Y225038D01*
X420345Y225036D01*
X420323Y225033D01*
X420301Y225032D01*
X420279Y225030D01*
X420257D01*
X420236Y225029D01*
X415278D01*
X415257Y225030D01*
X415235D01*
X415213Y225032D01*
X415191Y225033D01*
X415169Y225036D01*
X415148Y225038D01*
X415126Y225042D01*
X415105Y225045D01*
X415083Y225049D01*
X415062Y225053D01*
X415041Y225059D01*
X415019Y225064D01*
X414998Y225070D01*
X414977Y225076D01*
X414957Y225083D01*
X414936Y225090D01*
X414916Y225098D01*
X414895Y225106D01*
X414461Y225286D01*
X414442Y225295D01*
X414421Y225303D01*
X414402Y225313D01*
X414382Y225322D01*
X414363Y225333D01*
X414344Y225343D01*
X414326Y225355D01*
X414306Y225366D01*
X414289Y225379D01*
X414270Y225390D01*
X414253Y225404D01*
X414235Y225416D01*
X414218Y225430D01*
X414201Y225444D01*
X414185Y225458D01*
X414168Y225472D01*
X414153Y225488D01*
X414137Y225502D01*
X413804Y225835D01*
X413790Y225851D01*
X413774Y225866D01*
X413760Y225883D01*
X413745Y225899D01*
X413732Y225916D01*
X413718Y225933D01*
X413705Y225951D01*
X413692Y225968D01*
X413681Y225987D01*
X413668Y226005D01*
X413657Y226024D01*
X413645Y226042D01*
X413635Y226061D01*
X413624Y226080D01*
X413615Y226100D01*
X413605Y226119D01*
X413597Y226140D01*
X413587Y226160D01*
X413408Y226594D01*
X413400Y226614D01*
X413392Y226634D01*
X413385Y226655D01*
X413378Y226676D01*
X413372Y226697D01*
X413365Y226717D01*
X413361Y226739D01*
X413355Y226760D01*
X413351Y226781D01*
X413346Y226803D01*
X413344Y226824D01*
X413340Y226846D01*
X413338Y226868D01*
X413335Y226889D01*
X413334Y226911D01*
X413332Y226933D01*
Y226955D01*
X413331Y226977D01*
Y227211D01*
Y234633D01*
X413335Y234720D01*
X413346Y234807D01*
X413365Y234892D01*
X413392Y234975D01*
X413425Y235056D01*
X413465Y235133D01*
X413512Y235207D01*
X413565Y235276D01*
X413624Y235341D01*
X413689Y235400D01*
X413758Y235453D01*
X413832Y235500D01*
X413909Y235540D01*
X413990Y235573D01*
X414073Y235600D01*
X414158Y235618D01*
X414245Y235630D01*
X414332Y235634D01*
X421813D01*
X421900Y235630D01*
D02*
G37*
G36*
X420257Y265239D02*
X420279D01*
X420301Y265237D01*
X420323Y265236D01*
X420345Y265233D01*
X420366Y265231D01*
X420388Y265228D01*
X420409Y265225D01*
X420431Y265220D01*
X420452Y265216D01*
X420473Y265211D01*
X420495Y265206D01*
X420515Y265199D01*
X420537Y265194D01*
X420557Y265186D01*
X420578Y265180D01*
X420598Y265171D01*
X420619Y265164D01*
X421342Y264864D01*
X421362Y264855D01*
X421382Y264847D01*
X421402Y264836D01*
X421421Y264827D01*
X421440Y264816D01*
X421460Y264806D01*
X421478Y264794D01*
X421497Y264784D01*
X421515Y264771D01*
X421533Y264759D01*
X421551Y264746D01*
X421568Y264734D01*
X421585Y264720D01*
X421602Y264706D01*
X421619Y264691D01*
X421635Y264677D01*
X421651Y264662D01*
X421667Y264647D01*
X422221Y264093D01*
X422235Y264077D01*
X422251Y264062D01*
X422265Y264045D01*
X422280Y264029D01*
X422293Y264012D01*
X422307Y263995D01*
X422319Y263977D01*
X422333Y263960D01*
X422345Y263941D01*
X422357Y263924D01*
X422368Y263905D01*
X422380Y263886D01*
X422390Y263867D01*
X422401Y263848D01*
X422410Y263828D01*
X422420Y263809D01*
X422429Y263788D01*
X422438Y263769D01*
X422737Y263045D01*
X422745Y263025D01*
X422753Y263004D01*
X422760Y262984D01*
X422767Y262963D01*
X422773Y262942D01*
X422779Y262921D01*
X422784Y262900D01*
X422790Y262879D01*
X422794Y262857D01*
X422798Y262836D01*
X422801Y262814D01*
X422805Y262793D01*
X422807Y262771D01*
X422810Y262749D01*
X422811Y262728D01*
X422813Y262706D01*
Y262684D01*
X422814Y262662D01*
Y262271D01*
Y255637D01*
X422810Y255550D01*
X422798Y255463D01*
X422779Y255378D01*
X422753Y255294D01*
X422720Y255214D01*
X422679Y255136D01*
X422633Y255063D01*
X422579Y254993D01*
X422520Y254929D01*
X422456Y254870D01*
X422387Y254817D01*
X422313Y254770D01*
X422236Y254730D01*
X422155Y254696D01*
X422072Y254670D01*
X421986Y254651D01*
X421900Y254640D01*
X421813Y254636D01*
X414332D01*
X414245Y254640D01*
X414158Y254651D01*
X414073Y254670D01*
X413990Y254696D01*
X413909Y254730D01*
X413832Y254770D01*
X413758Y254817D01*
X413689Y254870D01*
X413624Y254929D01*
X413565Y254993D01*
X413512Y255063D01*
X413465Y255136D01*
X413425Y255214D01*
X413392Y255294D01*
X413365Y255378D01*
X413346Y255463D01*
X413335Y255550D01*
X413331Y255637D01*
Y263058D01*
Y263293D01*
X413332Y263315D01*
Y263337D01*
X413334Y263358D01*
X413335Y263380D01*
X413338Y263402D01*
X413340Y263424D01*
X413344Y263445D01*
X413346Y263467D01*
X413351Y263488D01*
X413355Y263510D01*
X413361Y263531D01*
X413365Y263552D01*
X413372Y263573D01*
X413378Y263594D01*
X413385Y263614D01*
X413392Y263635D01*
X413400Y263656D01*
X413408Y263676D01*
X413587Y264110D01*
X413597Y264130D01*
X413605Y264150D01*
X413615Y264169D01*
X413624Y264189D01*
X413635Y264208D01*
X413645Y264228D01*
X413657Y264246D01*
X413668Y264265D01*
X413681Y264283D01*
X413692Y264301D01*
X413705Y264318D01*
X413718Y264336D01*
X413732Y264353D01*
X413745Y264370D01*
X413760Y264387D01*
X413774Y264403D01*
X413790Y264419D01*
X413804Y264435D01*
X414137Y264767D01*
X414153Y264782D01*
X414168Y264797D01*
X414185Y264811D01*
X414201Y264826D01*
X414218Y264839D01*
X414235Y264853D01*
X414253Y264866D01*
X414270Y264879D01*
X414289Y264891D01*
X414306Y264903D01*
X414325Y264914D01*
X414344Y264926D01*
X414363Y264936D01*
X414382Y264947D01*
X414402Y264956D01*
X414421Y264967D01*
X414442Y264975D01*
X414461Y264984D01*
X414895Y265164D01*
X414916Y265171D01*
X414936Y265180D01*
X414957Y265186D01*
X414977Y265194D01*
X414999Y265199D01*
X415019Y265206D01*
X415040Y265211D01*
X415062Y265216D01*
X415083Y265220D01*
X415105Y265225D01*
X415126Y265228D01*
X415148Y265231D01*
X415169Y265233D01*
X415191Y265236D01*
X415213Y265237D01*
X415235Y265239D01*
X415257D01*
X415278Y265240D01*
X420236D01*
X420257Y265239D01*
D02*
G37*
D16*
X334442Y257850D02*
D03*
X336411D02*
D03*
X338380D02*
D03*
X340348D02*
D03*
X342317D02*
D03*
X344285D02*
D03*
X346253D02*
D03*
X348222D02*
D03*
X350190D02*
D03*
X352159D02*
D03*
X354128D02*
D03*
X356096D02*
D03*
X358065D02*
D03*
X360033D02*
D03*
X362002D02*
D03*
X363970D02*
D03*
Y214150D02*
D03*
X362002D02*
D03*
X360033D02*
D03*
X358065D02*
D03*
X356096D02*
D03*
X354128D02*
D03*
X352159D02*
D03*
X350190D02*
D03*
X348222D02*
D03*
X346253D02*
D03*
X344285D02*
D03*
X342317D02*
D03*
X340348D02*
D03*
X338380D02*
D03*
X336411D02*
D03*
X334442D02*
D03*
D17*
X371057Y250764D02*
D03*
Y248795D02*
D03*
Y246827D02*
D03*
Y244858D02*
D03*
Y242890D02*
D03*
Y240921D02*
D03*
Y238953D02*
D03*
Y236984D02*
D03*
Y235016D02*
D03*
Y233047D02*
D03*
Y231079D02*
D03*
Y229110D02*
D03*
Y227142D02*
D03*
Y225173D02*
D03*
Y223205D02*
D03*
Y221236D02*
D03*
X327356D02*
D03*
Y223205D02*
D03*
Y225173D02*
D03*
Y227142D02*
D03*
Y229110D02*
D03*
Y231079D02*
D03*
Y233047D02*
D03*
Y235016D02*
D03*
Y236984D02*
D03*
Y238953D02*
D03*
Y240921D02*
D03*
Y242890D02*
D03*
Y244858D02*
D03*
Y246827D02*
D03*
Y248795D02*
D03*
Y250764D02*
D03*
D18*
X242903Y172711D02*
D03*
X249990D02*
D03*
X404658Y86379D02*
D03*
X397572D02*
D03*
X308525Y86837D02*
D03*
X315612D02*
D03*
X379413Y86379D02*
D03*
X386500D02*
D03*
X334217Y86837D02*
D03*
X327130D02*
D03*
X387300Y76436D02*
D03*
X380213D02*
D03*
X358244Y160840D02*
D03*
X351157D02*
D03*
X366655Y164777D02*
D03*
X373742D02*
D03*
X366612Y172651D02*
D03*
X373699D02*
D03*
X358244Y152697D02*
D03*
X351157D02*
D03*
X366655Y156903D02*
D03*
X373742D02*
D03*
X281184Y86440D02*
D03*
X274098D02*
D03*
X185051Y86897D02*
D03*
X192137D02*
D03*
X255703Y86440D02*
D03*
X262790D02*
D03*
X210507Y86897D02*
D03*
X203421D02*
D03*
X263914Y76360D02*
D03*
X256827D02*
D03*
X234534Y160900D02*
D03*
X227448D02*
D03*
X242946Y164837D02*
D03*
X250033D02*
D03*
X234534Y152758D02*
D03*
X227448D02*
D03*
X242946Y156963D02*
D03*
X250033D02*
D03*
X294607Y250977D02*
D03*
X301694D02*
D03*
X155024Y297710D02*
D03*
X162110D02*
D03*
X153370Y314823D02*
D03*
X160457D02*
D03*
X65644Y86981D02*
D03*
X58557D02*
D03*
X149825Y86523D02*
D03*
X156912D02*
D03*
X140045Y86434D02*
D03*
X132959D02*
D03*
X80809Y86981D02*
D03*
X87896D02*
D03*
X133893Y77787D02*
D03*
X140979D02*
D03*
X104836Y160984D02*
D03*
X111923D02*
D03*
X127421Y164921D02*
D03*
X120335D02*
D03*
X127378Y172795D02*
D03*
X120291D02*
D03*
X104836Y152841D02*
D03*
X111923D02*
D03*
X127421Y157047D02*
D03*
X120335D02*
D03*
X331969Y271518D02*
D03*
X339056D02*
D03*
X310773Y244837D02*
D03*
X317860D02*
D03*
X339056Y279515D02*
D03*
X331969D02*
D03*
X330664Y203442D02*
D03*
X337750D02*
D03*
X301694Y259015D02*
D03*
X294607D02*
D03*
X287692Y294759D02*
D03*
X280605D02*
D03*
X374091Y203958D02*
D03*
X367005D02*
D03*
X292102Y238965D02*
D03*
X299188D02*
D03*
D19*
X340709Y138764D02*
D03*
X343858D02*
D03*
X347008D02*
D03*
X350157D02*
D03*
X353307D02*
D03*
X356457D02*
D03*
X359606D02*
D03*
X362756D02*
D03*
X365905D02*
D03*
X369055D02*
D03*
X372205D02*
D03*
Y93264D02*
D03*
X369055D02*
D03*
X365905D02*
D03*
X362756D02*
D03*
X359606D02*
D03*
X356457D02*
D03*
X353307D02*
D03*
X350157D02*
D03*
X347008D02*
D03*
X343858D02*
D03*
X340709D02*
D03*
X216999Y93325D02*
D03*
X220149D02*
D03*
X223298D02*
D03*
X226448D02*
D03*
X229598D02*
D03*
X232747D02*
D03*
X235897D02*
D03*
X239047D02*
D03*
X242196D02*
D03*
X245346D02*
D03*
X248495D02*
D03*
Y138825D02*
D03*
X245346D02*
D03*
X242196D02*
D03*
X239047D02*
D03*
X235897D02*
D03*
X232747D02*
D03*
X229598D02*
D03*
X226448D02*
D03*
X223298D02*
D03*
X220149D02*
D03*
X216999D02*
D03*
X94388Y93408D02*
D03*
X97537D02*
D03*
X100687D02*
D03*
X103837D02*
D03*
X106986D02*
D03*
X110136D02*
D03*
X113286D02*
D03*
X116435D02*
D03*
X119585D02*
D03*
X122734D02*
D03*
X125884D02*
D03*
Y138908D02*
D03*
X122734D02*
D03*
X119585D02*
D03*
X116435D02*
D03*
X113286D02*
D03*
X110136D02*
D03*
X106986D02*
D03*
X103837D02*
D03*
X100687D02*
D03*
X97537D02*
D03*
X94388D02*
D03*
D20*
X379207Y131762D02*
D03*
Y128613D02*
D03*
Y125463D02*
D03*
Y122314D02*
D03*
Y119164D02*
D03*
Y116014D02*
D03*
Y112865D02*
D03*
Y109715D02*
D03*
Y106565D02*
D03*
Y103416D02*
D03*
Y100266D02*
D03*
X333707D02*
D03*
Y103416D02*
D03*
Y106565D02*
D03*
Y109715D02*
D03*
Y112865D02*
D03*
Y116014D02*
D03*
Y119164D02*
D03*
Y122314D02*
D03*
Y125463D02*
D03*
Y128613D02*
D03*
Y131762D02*
D03*
X209997Y131823D02*
D03*
Y128673D02*
D03*
Y125524D02*
D03*
Y122374D02*
D03*
Y119225D02*
D03*
Y116075D02*
D03*
Y112925D02*
D03*
Y109776D02*
D03*
Y106626D02*
D03*
Y103477D02*
D03*
Y100327D02*
D03*
X255497D02*
D03*
Y103477D02*
D03*
Y106626D02*
D03*
Y109776D02*
D03*
Y112925D02*
D03*
Y116075D02*
D03*
Y119225D02*
D03*
Y122374D02*
D03*
Y125524D02*
D03*
Y128673D02*
D03*
Y131823D02*
D03*
X87386Y131906D02*
D03*
Y128757D02*
D03*
Y125607D02*
D03*
Y122458D02*
D03*
Y119308D02*
D03*
Y116158D02*
D03*
Y113009D02*
D03*
Y109859D02*
D03*
Y106710D02*
D03*
Y103560D02*
D03*
Y100410D02*
D03*
X132886D02*
D03*
Y103560D02*
D03*
Y106710D02*
D03*
Y109859D02*
D03*
Y113009D02*
D03*
Y116158D02*
D03*
Y119308D02*
D03*
Y122458D02*
D03*
Y125607D02*
D03*
Y128757D02*
D03*
Y131906D02*
D03*
D21*
X315111Y175876D02*
D03*
Y147924D02*
D03*
X398078Y175416D02*
D03*
Y147463D02*
D03*
X275369Y175876D02*
D03*
Y147924D02*
D03*
X192137Y176755D02*
D03*
Y148802D02*
D03*
X71852Y177130D02*
D03*
Y149177D02*
D03*
X151479Y148802D02*
D03*
Y176755D02*
D03*
D22*
X372910Y76436D02*
D03*
Y81554D02*
D03*
X368973D02*
D03*
Y76436D02*
D03*
X248807Y78544D02*
D03*
Y83662D02*
D03*
X244870D02*
D03*
Y78544D02*
D03*
X122781Y79938D02*
D03*
Y85056D02*
D03*
X126718D02*
D03*
Y79938D02*
D03*
D23*
X386956Y99058D02*
D03*
X413137D02*
D03*
X325278Y98668D02*
D03*
X299096D02*
D03*
X264247Y98728D02*
D03*
X290428D02*
D03*
X201935Y99426D02*
D03*
X175754D02*
D03*
X166459Y99510D02*
D03*
X140278D02*
D03*
X51547D02*
D03*
X77728D02*
D03*
D24*
X342872Y77639D02*
D03*
Y84725D02*
D03*
X219206Y77560D02*
D03*
Y84647D02*
D03*
X258639Y279878D02*
D03*
Y272791D02*
D03*
X116655Y322050D02*
D03*
Y314964D02*
D03*
X413137Y65500D02*
D03*
Y72587D02*
D03*
X146769Y297700D02*
D03*
Y290614D02*
D03*
X145441Y315020D02*
D03*
Y322107D02*
D03*
X125375Y314964D02*
D03*
Y322050D02*
D03*
X122938Y297293D02*
D03*
Y290207D02*
D03*
X138652Y297710D02*
D03*
Y290624D02*
D03*
X136762Y315020D02*
D03*
Y322107D02*
D03*
X114217Y290207D02*
D03*
Y297293D02*
D03*
X299188Y230755D02*
D03*
Y223668D02*
D03*
X194106Y236717D02*
D03*
Y229631D02*
D03*
X387591Y203239D02*
D03*
Y196152D02*
D03*
X398733Y203239D02*
D03*
Y196152D02*
D03*
X410508Y203239D02*
D03*
Y196152D02*
D03*
X96615Y84988D02*
D03*
Y77902D02*
D03*
X249395Y211947D02*
D03*
Y219033D02*
D03*
X317080Y223668D02*
D03*
Y230755D02*
D03*
X383706Y255861D02*
D03*
Y248774D02*
D03*
X308805Y223668D02*
D03*
Y230755D02*
D03*
X241296Y219033D02*
D03*
Y211947D02*
D03*
D25*
X271149Y285960D02*
D03*
Y267968D02*
D03*
D26*
X299417Y276964D02*
D03*
D27*
X203648Y239867D02*
D03*
X208766D02*
D03*
Y235930D02*
D03*
X203648D02*
D03*
D28*
X228372Y228671D02*
D03*
X226404D02*
D03*
X224435D02*
D03*
X222467D02*
D03*
X220498D02*
D03*
X218530D02*
D03*
X216561D02*
D03*
X214593D02*
D03*
Y209396D02*
D03*
X216561D02*
D03*
X218530D02*
D03*
X220498D02*
D03*
X222467D02*
D03*
X224435D02*
D03*
X226404D02*
D03*
X228372D02*
D03*
D29*
X211845Y225923D02*
D03*
Y223955D02*
D03*
Y221986D02*
D03*
Y220018D02*
D03*
Y218049D02*
D03*
Y216081D02*
D03*
Y214112D02*
D03*
Y212144D02*
D03*
X231120D02*
D03*
Y214112D02*
D03*
Y216081D02*
D03*
Y218049D02*
D03*
Y220018D02*
D03*
Y221986D02*
D03*
Y223955D02*
D03*
Y225923D02*
D03*
D30*
X221482Y219033D02*
D03*
D31*
X310773Y256373D02*
D03*
Y252042D02*
D03*
D32*
X387591Y218135D02*
D03*
Y212230D02*
D03*
X398733Y218135D02*
D03*
Y212230D02*
D03*
X410508Y218135D02*
D03*
Y212230D02*
D03*
D33*
X418072Y249662D02*
D03*
Y240607D02*
D03*
D34*
X407029Y240017D02*
D03*
Y250253D02*
D03*
Y242576D02*
D03*
Y245135D02*
D03*
Y247694D02*
D03*
D35*
X71319Y289681D02*
D03*
Y278894D02*
D03*
Y268106D02*
D03*
Y257319D02*
D03*
X82500Y295075D02*
D03*
Y284287D02*
D03*
Y273500D02*
D03*
Y262713D02*
D03*
X376044Y41181D02*
D03*
X365257D02*
D03*
X354470D02*
D03*
X343682D02*
D03*
X381438Y30000D02*
D03*
X370651D02*
D03*
X359863D02*
D03*
X349076D02*
D03*
X250686Y41500D02*
D03*
X239899D02*
D03*
X229111D02*
D03*
X218324D02*
D03*
X256080Y30319D02*
D03*
X245292D02*
D03*
X234505D02*
D03*
X223718D02*
D03*
X125032Y41500D02*
D03*
X114244D02*
D03*
X103457D02*
D03*
X92669D02*
D03*
X130425Y30319D02*
D03*
X119638D02*
D03*
X108851D02*
D03*
X98063D02*
D03*
D36*
X82500Y251925D02*
D03*
D37*
X76910Y224327D02*
D03*
Y322713D02*
D03*
X310690Y35591D02*
D03*
X409076D02*
D03*
X185332Y35909D02*
D03*
X283718D02*
D03*
X59677D02*
D03*
X158063D02*
D03*
D38*
X338288Y30000D02*
D03*
X212930Y30319D02*
D03*
X87276D02*
D03*
D39*
X360033Y275578D02*
D03*
X370033D02*
D03*
D40*
X380033D02*
D03*
D41*
X263122Y317914D02*
D03*
X310531Y317500D02*
D03*
X381842Y317257D02*
D03*
D42*
X243437Y317914D02*
D03*
X290846Y317500D02*
D03*
X362158Y317257D02*
D03*
D43*
X406045Y253895D02*
D03*
Y236375D02*
D03*
D44*
X336257Y221236D02*
D03*
X187361Y236717D02*
D03*
X235727Y210065D02*
D03*
X249990Y178632D02*
D03*
X380850Y203958D02*
D03*
X341018Y172711D02*
D03*
X343157Y174398D02*
D03*
X356590Y87337D02*
D03*
X372910Y86940D02*
D03*
X351157Y167257D02*
D03*
X358244D02*
D03*
X359606Y144707D02*
D03*
X373699Y178632D02*
D03*
X392960Y76436D02*
D03*
X401749Y72792D02*
D03*
X404658Y70315D02*
D03*
X380213Y81173D02*
D03*
X337959Y77639D02*
D03*
X296983Y78995D02*
D03*
X312068Y67656D02*
D03*
X300779Y78822D02*
D03*
X295848Y72499D02*
D03*
X218548Y175391D02*
D03*
X234534Y167318D02*
D03*
X221646Y190017D02*
D03*
X217501D02*
D03*
X227448Y167318D02*
D03*
X220340Y172860D02*
D03*
X238470Y145168D02*
D03*
X220149Y143875D02*
D03*
X173713Y80761D02*
D03*
X232747Y87531D02*
D03*
X214486Y77493D02*
D03*
X248838Y87724D02*
D03*
X256827Y81047D02*
D03*
X289239Y79052D02*
D03*
X292776Y74712D02*
D03*
X293086Y78995D02*
D03*
X279306Y73014D02*
D03*
X268655Y76360D02*
D03*
X97537Y143958D02*
D03*
X133386Y81779D02*
D03*
X160466Y205609D02*
D03*
X338298Y263893D02*
D03*
X224408Y252866D02*
D03*
X116158Y149005D02*
D03*
X318970Y269045D02*
D03*
X251280Y279878D02*
D03*
X339056Y286450D02*
D03*
X116655Y327692D02*
D03*
X353035Y271518D02*
D03*
X145441Y328536D02*
D03*
X136762Y328671D02*
D03*
X146769Y284045D02*
D03*
X138652Y284208D02*
D03*
X122938Y284289D02*
D03*
X114342Y284414D02*
D03*
X125375Y327692D02*
D03*
X360475Y194678D02*
D03*
X405932Y65500D02*
D03*
X356096Y194839D02*
D03*
X353035Y203958D02*
D03*
X361856Y227211D02*
D03*
X334207Y235016D02*
D03*
X207764Y218049D02*
D03*
X360033Y267000D02*
D03*
X293086Y225334D02*
D03*
X347238Y225727D02*
D03*
X242431Y236386D02*
D03*
X352159Y224928D02*
D03*
X305547Y236000D02*
D03*
X239047Y234000D02*
D03*
X346253Y221236D02*
D03*
X244995Y227959D02*
D03*
X241188Y224705D02*
D03*
X367026Y197944D02*
D03*
X325930Y207895D02*
D03*
X340320Y221236D02*
D03*
X235897Y219268D02*
D03*
X203648Y216081D02*
D03*
X304325Y230755D02*
D03*
X277338Y199796D02*
D03*
X227772Y205609D02*
D03*
X389560Y255861D02*
D03*
Y248774D02*
D03*
X287000Y259015D02*
D03*
X285704Y238953D02*
D03*
X146360Y77787D02*
D03*
X126702Y88780D02*
D03*
X110136Y85934D02*
D03*
X111923Y167289D02*
D03*
X127378Y178474D02*
D03*
X187200Y229631D02*
D03*
X249453Y225068D02*
D03*
X340379Y247753D02*
D03*
X213993Y233000D02*
D03*
X199707Y209396D02*
D03*
Y214111D02*
D03*
X277338Y195326D02*
D03*
X287000Y197858D02*
D03*
X360033Y203958D02*
D03*
X155337Y78363D02*
D03*
X292177Y197776D02*
D03*
X283000Y195326D02*
D03*
X216561Y203467D02*
D03*
X296983Y197858D02*
D03*
X301078Y195151D02*
D03*
X296983Y193016D02*
D03*
X162362Y80932D02*
D03*
X173500Y193085D02*
D03*
X169707Y193169D02*
D03*
Y80839D02*
D03*
X166360Y193261D02*
D03*
X166176Y80839D02*
D03*
X91383Y77787D02*
D03*
X100702Y175475D02*
D03*
X97537Y172752D02*
D03*
X104836Y167401D02*
D03*
X325500Y279515D02*
D03*
X218530Y233000D02*
D03*
X224435Y236386D02*
D03*
X222467Y233000D02*
D03*
X235897Y216081D02*
D03*
D45*
X318128Y119309D02*
D03*
X306350Y134838D02*
D03*
Y127046D02*
D03*
Y119080D02*
D03*
X326158Y119309D02*
D03*
Y127101D02*
D03*
X318128D02*
D03*
X306515Y168774D02*
D03*
Y182958D02*
D03*
X335711Y187429D02*
D03*
X324364Y181879D02*
D03*
X330037Y187512D02*
D03*
Y181913D02*
D03*
X306515Y159818D02*
D03*
X306350Y151170D02*
D03*
X324364Y187429D02*
D03*
X335711Y181878D02*
D03*
X350157Y116914D02*
D03*
X368909Y116773D02*
D03*
X361709Y101551D02*
D03*
X368909D02*
D03*
Y109129D02*
D03*
X350157Y109270D02*
D03*
X361709Y109129D02*
D03*
X361592Y116773D02*
D03*
X350157Y101692D02*
D03*
X386766Y127146D02*
D03*
X394796Y119309D02*
D03*
X386766Y119353D02*
D03*
Y111354D02*
D03*
X394796D02*
D03*
Y127146D02*
D03*
X415850Y134338D02*
D03*
X409015Y159318D02*
D03*
Y182458D02*
D03*
X415850Y110691D02*
D03*
X409015Y168274D02*
D03*
X415850Y118580D02*
D03*
Y126546D02*
D03*
X408850Y118580D02*
D03*
Y126546D02*
D03*
Y134338D02*
D03*
X416015Y182458D02*
D03*
X408850Y150670D02*
D03*
Y110691D02*
D03*
X342958Y109270D02*
D03*
X318128Y111310D02*
D03*
X326158D02*
D03*
X342841Y116914D02*
D03*
X306350Y111191D02*
D03*
X342958Y101692D02*
D03*
X284350Y119080D02*
D03*
Y127046D02*
D03*
Y134838D02*
D03*
Y151170D02*
D03*
X284515Y159818D02*
D03*
Y182958D02*
D03*
Y168774D02*
D03*
X202047Y127211D02*
D03*
X194017D02*
D03*
X183506Y118918D02*
D03*
X202047Y119419D02*
D03*
X194017D02*
D03*
X183506Y126883D02*
D03*
X272936Y127018D02*
D03*
X264906D02*
D03*
Y119226D02*
D03*
X183672Y182796D02*
D03*
Y168612D02*
D03*
Y159656D02*
D03*
X183506Y134676D02*
D03*
Y151008D02*
D03*
X272936Y119182D02*
D03*
X176925Y111158D02*
D03*
X183506Y111029D02*
D03*
X245199Y116834D02*
D03*
X219131Y116975D02*
D03*
X219249Y101753D02*
D03*
X226448D02*
D03*
X219249Y109331D02*
D03*
X238000Y109190D02*
D03*
X245199D02*
D03*
X202047Y111420D02*
D03*
X237883Y116834D02*
D03*
X226448Y109331D02*
D03*
X245199Y101612D02*
D03*
X194017Y111408D02*
D03*
X226448Y116975D02*
D03*
X238000Y101612D02*
D03*
X272936Y111227D02*
D03*
X284350Y111191D02*
D03*
X264906Y111227D02*
D03*
X176925Y119047D02*
D03*
Y134805D02*
D03*
Y127013D02*
D03*
X177091Y182926D02*
D03*
Y159785D02*
D03*
Y168741D02*
D03*
X270932Y205204D02*
D03*
X263496D02*
D03*
X256060D02*
D03*
X248624D02*
D03*
X241188Y205332D02*
D03*
X159239Y111529D02*
D03*
Y119418D02*
D03*
Y127383D02*
D03*
Y135176D02*
D03*
Y151508D02*
D03*
X159405Y160156D02*
D03*
Y169112D02*
D03*
Y183296D02*
D03*
X51906Y110824D02*
D03*
Y118713D02*
D03*
Y126679D02*
D03*
Y134471D02*
D03*
Y150803D02*
D03*
X52072Y159451D02*
D03*
Y168407D02*
D03*
Y182591D02*
D03*
X68191Y119474D02*
D03*
X96140Y117058D02*
D03*
X68191Y126735D02*
D03*
X77604D02*
D03*
X103457Y117058D02*
D03*
X77604Y119474D02*
D03*
X115271Y116917D02*
D03*
X77604Y111193D02*
D03*
X103457Y109414D02*
D03*
X96258D02*
D03*
X103457Y101836D02*
D03*
X96258D02*
D03*
X115389Y101695D02*
D03*
Y109273D02*
D03*
X122588D02*
D03*
X148452Y111380D02*
D03*
X140422D02*
D03*
X122588Y101695D02*
D03*
X148452Y119334D02*
D03*
X140422Y119379D02*
D03*
Y127171D02*
D03*
X148452D02*
D03*
X122588Y116917D02*
D03*
X68191Y111193D02*
D03*
X134550Y50000D02*
D03*
X134554Y58030D02*
D03*
X141694D02*
D03*
Y50000D02*
D03*
X148958Y58030D02*
D03*
Y50000D02*
D03*
X256823Y50655D02*
D03*
X256827Y58685D02*
D03*
X263967D02*
D03*
Y50655D02*
D03*
X271232Y58685D02*
D03*
Y50655D02*
D03*
X394353Y50970D02*
D03*
Y59000D02*
D03*
X387089Y50970D02*
D03*
Y59000D02*
D03*
X379948D02*
D03*
X379945Y50970D02*
D03*
M02*
