G04*
G04 #@! TF.GenerationSoftware,Altium Limited,Altium Designer,21.8.1 (53)*
G04*
G04 Layer_Physical_Order=1*
G04 Layer_Color=255*
%FSLAX25Y25*%
%MOIN*%
G70*
G04*
G04 #@! TF.SameCoordinates,57A0437E-557E-4490-84B7-93440E4047FD*
G04*
G04*
G04 #@! TF.FilePolarity,Positive*
G04*
G01*
G75*
%ADD19R,0.02000X0.06100*%
%ADD20R,0.06100X0.02000*%
%ADD22R,0.02559X0.02953*%
%ADD23R,0.05709X0.11417*%
%ADD25R,0.11811X0.06299*%
%ADD26R,0.24410X0.22835*%
%ADD27R,0.02953X0.02559*%
%ADD28R,0.01003X0.03575*%
%ADD29R,0.03575X0.01003*%
%ADD30R,0.14200X0.14200*%
%ADD31R,0.03937X0.01968*%
%ADD35C,0.06260*%
%ADD36R,0.06260X0.06260*%
%ADD37C,0.12008*%
%ADD38R,0.06260X0.06260*%
%ADD46O,0.01181X0.07087*%
%ADD47O,0.07087X0.01181*%
%ADD48R,0.04331X0.03937*%
%ADD49R,0.07874X0.15748*%
%ADD50R,0.03937X0.04331*%
%ADD51R,0.03150X0.03150*%
%ADD52R,0.07480X0.07087*%
%ADD53R,0.05315X0.01575*%
%ADD54C,0.01000*%
%ADD55C,0.01968*%
%ADD56C,0.05906*%
%ADD57R,0.05906X0.05906*%
%ADD58R,0.06299X0.06299*%
%ADD59C,0.06299*%
%ADD60O,0.04921X0.04134*%
%ADD61C,0.02000*%
%ADD62C,0.03937*%
G36*
X281246Y318254D02*
Y297227D01*
X277940D01*
Y295778D01*
X274759D01*
X274369Y295701D01*
X274038Y295480D01*
X270428Y291870D01*
X270207Y291540D01*
X270130Y291149D01*
Y289610D01*
X264744D01*
Y283752D01*
X261889Y280897D01*
X261107D01*
Y282543D01*
X256170D01*
Y280897D01*
X253023D01*
X252976Y281011D01*
X252413Y281573D01*
X251678Y281878D01*
X250883D01*
X250148Y281573D01*
X249585Y281011D01*
X249281Y280276D01*
Y279480D01*
X249585Y278745D01*
X250148Y278182D01*
X250883Y277878D01*
X251678D01*
X252413Y278182D01*
X252976Y278745D01*
X253023Y278858D01*
X256170D01*
Y277212D01*
X261107D01*
Y278858D01*
X262311D01*
X262701Y278936D01*
X263032Y279157D01*
X266186Y282310D01*
X277555D01*
Y289610D01*
X272169D01*
Y290727D01*
X275181Y293739D01*
X277940D01*
Y292290D01*
X281246D01*
X281246Y210885D01*
X272477Y202116D01*
Y190331D01*
Y184751D01*
Y184251D01*
X270932D01*
Y181424D01*
Y167502D01*
X272143D01*
X272477Y167002D01*
Y162729D01*
X272635Y162347D01*
X273018Y162188D01*
X276482D01*
Y156798D01*
X275869D01*
Y147924D01*
Y139050D01*
X276482D01*
Y130575D01*
X251243D01*
Y123516D01*
X258747D01*
X258747Y121582D01*
X258393Y121228D01*
X234930D01*
X233822Y122336D01*
Y133043D01*
X234913Y134133D01*
X249275D01*
X250805Y135664D01*
X250805Y148295D01*
X254618Y152108D01*
Y176648D01*
X253821Y177445D01*
X252204D01*
X251870Y177945D01*
X251990Y178235D01*
Y179030D01*
X251685Y179765D01*
X251122Y180328D01*
X250387Y180632D01*
X249592D01*
X248857Y180328D01*
X248294Y179765D01*
X247990Y179030D01*
Y178235D01*
X248109Y177945D01*
X247775Y177445D01*
X214589D01*
Y135781D01*
X216236Y134133D01*
X229326D01*
X230348Y133111D01*
Y122374D01*
X229150Y121177D01*
X206746D01*
X206746Y123566D01*
X214249D01*
Y130520D01*
X213995Y130775D01*
X190484D01*
Y139928D01*
X191637D01*
Y148802D01*
X192137D01*
D01*
X191637D01*
Y157676D01*
X190484D01*
Y162607D01*
X199166Y162607D01*
X199548Y162766D01*
X199707Y163148D01*
Y190391D01*
X215501D01*
Y189619D01*
X215806Y188884D01*
X216369Y188321D01*
X217104Y188017D01*
X217899D01*
X218634Y188321D01*
X219197Y188884D01*
X219303Y189140D01*
X219844D01*
X219951Y188884D01*
X220513Y188321D01*
X221248Y188017D01*
X222044D01*
X222779Y188321D01*
X223341Y188884D01*
X223646Y189619D01*
Y190391D01*
X225309D01*
Y202456D01*
X225351Y202448D01*
X229299D01*
X229689Y202525D01*
X230020Y202746D01*
X235339Y208065D01*
X236125D01*
X236860Y208370D01*
X237422Y208932D01*
X237448Y208993D01*
X254220D01*
Y227201D01*
X244286Y237134D01*
X244127Y237519D01*
X243564Y238081D01*
X243180Y238241D01*
X224295Y257125D01*
X191568Y257125D01*
X152758Y216662D01*
Y191041D01*
X149328D01*
X148945Y190883D01*
X148786Y190500D01*
Y185629D01*
X148452Y185129D01*
X147041D01*
Y168381D01*
X148452D01*
X148786Y167881D01*
Y163148D01*
X148945Y162766D01*
X149328Y162607D01*
X152758D01*
Y157676D01*
X151978D01*
Y148802D01*
Y139928D01*
X152758D01*
Y130658D01*
X128631D01*
Y123600D01*
X136135D01*
X136135Y121665D01*
X135782Y121311D01*
X112319D01*
X111211Y122420D01*
Y133126D01*
X112301Y134216D01*
X126663D01*
X128194Y135747D01*
X128194Y148379D01*
X132007Y152191D01*
Y176732D01*
X131210Y177529D01*
X129601D01*
X129323Y177944D01*
X129378Y178077D01*
Y178872D01*
X129074Y179607D01*
X128511Y180170D01*
X127776Y180474D01*
X126980D01*
X126245Y180170D01*
X125683Y179607D01*
X125378Y178872D01*
Y178077D01*
X125433Y177944D01*
X125155Y177529D01*
X91978D01*
Y135864D01*
X93625Y134216D01*
X106714D01*
X107736Y133195D01*
Y122458D01*
X106539Y121260D01*
X84135D01*
X84135Y123650D01*
X91638D01*
Y130604D01*
X91383Y130858D01*
X69884D01*
Y140303D01*
X71352D01*
Y149177D01*
X71852D01*
D01*
X71352D01*
Y158051D01*
X69884D01*
Y162613D01*
X75000D01*
X75383Y162771D01*
X75541Y163154D01*
Y168256D01*
X75875Y168756D01*
X76289D01*
Y185504D01*
X75875D01*
X75541Y186004D01*
Y190474D01*
X75383Y190857D01*
X75000Y191016D01*
X48500D01*
Y258500D01*
X66639D01*
X66944Y258103D01*
X66890Y257902D01*
Y256736D01*
X67192Y255609D01*
X67775Y254599D01*
X68599Y253775D01*
X69609Y253192D01*
X70736Y252890D01*
X71902D01*
X73028Y253192D01*
X74038Y253775D01*
X74863Y254599D01*
X75446Y255609D01*
X75748Y256736D01*
Y257902D01*
X75694Y258103D01*
X75999Y258500D01*
X81109D01*
X81917Y258283D01*
X83083D01*
X83891Y258500D01*
X124270D01*
X161012Y295242D01*
X164776D01*
Y299005D01*
X189770Y324000D01*
X275500D01*
X281246Y318254D01*
D02*
G37*
G36*
X420959Y263939D02*
X421513Y263386D01*
X421813Y262662D01*
Y262271D01*
Y255637D01*
X414332D01*
Y263058D01*
Y263293D01*
X414512Y263727D01*
X414844Y264059D01*
X415278Y264239D01*
X420236D01*
X420959Y263939D01*
D02*
G37*
G36*
X421813Y227999D02*
Y227607D01*
X421513Y226884D01*
X420959Y226330D01*
X420236Y226030D01*
X415278D01*
X414844Y226210D01*
X414512Y226542D01*
X414332Y226977D01*
Y227211D01*
Y234633D01*
X421813D01*
Y227999D01*
D02*
G37*
G36*
X421333Y187512D02*
Y80847D01*
X416921Y76436D01*
X414157D01*
Y78097D01*
X414079Y78487D01*
X413858Y78818D01*
X407824Y84852D01*
Y85879D01*
X405158D01*
Y83410D01*
X406382D01*
X412117Y77675D01*
Y76436D01*
X405005D01*
X400233Y81207D01*
Y83910D01*
X400237D01*
Y88847D01*
X400233D01*
X400233Y139089D01*
X402515D01*
Y155837D01*
X400233D01*
Y162347D01*
X397119D01*
Y166542D01*
X397578D01*
Y175416D01*
Y184290D01*
X397119D01*
Y190350D01*
X408995Y190350D01*
Y184578D01*
X407945Y183529D01*
X407617Y183038D01*
X407502Y182458D01*
X407617Y181879D01*
X407945Y181388D01*
X408436Y181060D01*
X409015Y180945D01*
X409594Y181060D01*
X410085Y181388D01*
X411578Y182881D01*
X411578Y182881D01*
X411906Y183372D01*
X412021Y183951D01*
Y190350D01*
X418494D01*
X421333Y187512D01*
D02*
G37*
G36*
X396113Y183790D02*
X393641D01*
Y167042D01*
X396113D01*
Y161388D01*
X398733D01*
Y156337D01*
X398578D01*
Y147463D01*
Y138589D01*
X398733D01*
Y130515D01*
X374952D01*
Y123456D01*
X382456D01*
X382456Y121521D01*
X382103Y121167D01*
X358640D01*
X357531Y122276D01*
Y132982D01*
X358622Y134072D01*
X372984D01*
X374515Y135603D01*
X374515Y148235D01*
X378328Y152048D01*
Y176588D01*
X377531Y177384D01*
X375888D01*
X375554Y177885D01*
X375699Y178235D01*
Y179030D01*
X375395Y179765D01*
X374832Y180328D01*
X374097Y180632D01*
X373301D01*
X372566Y180328D01*
X372003Y179765D01*
X371699Y179030D01*
Y178235D01*
X371844Y177885D01*
X371510Y177384D01*
X338298D01*
Y135720D01*
X339946Y134072D01*
X353035D01*
X354057Y133051D01*
Y122314D01*
X352860Y121116D01*
X330456D01*
X330456Y123505D01*
X337959D01*
Y130460D01*
X337704Y130714D01*
X314156D01*
Y139050D01*
X314612D01*
Y147924D01*
Y156798D01*
X314156D01*
Y162188D01*
X320947D01*
X321330Y162347D01*
X321488Y162729D01*
Y190331D01*
X321488Y190331D01*
X396113D01*
Y183790D01*
D02*
G37*
G36*
X90638Y124474D02*
X83135D01*
X83136Y114194D01*
X90638D01*
Y108476D01*
X90637Y108475D01*
X63533Y108475D01*
X63179Y108828D01*
Y129973D01*
X90638D01*
Y124474D01*
D02*
G37*
G36*
X152758Y129973D02*
Y108471D01*
X129990Y108452D01*
X129637Y108806D01*
Y114433D01*
X136436D01*
X136535Y114474D01*
X137136D01*
X137136Y123977D01*
X137136Y124474D01*
X137134Y124476D01*
X136637Y124476D01*
X129637D01*
Y129620D01*
X129990Y129973D01*
X152758Y129973D01*
D02*
G37*
G36*
X213249Y124391D02*
X205747D01*
X205747Y114111D01*
X213249D01*
Y108392D01*
X213248Y108391D01*
X190837Y108391D01*
X190484Y108745D01*
Y129890D01*
X213249D01*
Y124391D01*
D02*
G37*
G36*
X276482Y129889D02*
Y108389D01*
X252602Y108369D01*
X252248Y108722D01*
Y114349D01*
X259047D01*
X259146Y114390D01*
X259747D01*
X259747Y123893D01*
X259748Y124391D01*
X259746Y124393D01*
X259248Y124393D01*
X252248D01*
Y129536D01*
X252602Y129890D01*
X276482Y129889D01*
D02*
G37*
G36*
X336959Y124330D02*
X329456D01*
X329457Y114050D01*
X336959D01*
Y108332D01*
X336958Y108331D01*
X314509Y108331D01*
X314156Y108684D01*
Y129829D01*
X336959D01*
Y124330D01*
D02*
G37*
G36*
X399225Y129829D02*
Y108327D01*
X376311Y108308D01*
X375957Y108662D01*
Y114289D01*
X382757D01*
X382856Y114330D01*
X383457D01*
X383457Y123833D01*
X383457Y124330D01*
X383455Y124332D01*
X382958Y124332D01*
X375957D01*
Y129476D01*
X376311Y129829D01*
X399225Y129829D01*
D02*
G37*
G36*
X90634Y107580D02*
Y105515D01*
X84139Y105511D01*
X84048Y105474D01*
X82336Y105474D01*
Y89949D01*
X81310D01*
Y86981D01*
Y84012D01*
X82336D01*
Y81548D01*
X63179D01*
Y84012D01*
X65144D01*
Y86981D01*
Y89949D01*
X63179D01*
X63179Y107575D01*
X63533Y107933D01*
X63533Y107933D01*
X90280Y107934D01*
X90634Y107580D01*
D02*
G37*
G36*
X213245Y107497D02*
Y105431D01*
X206750Y105428D01*
X206659Y105390D01*
X204947Y105390D01*
Y89866D01*
X203921D01*
Y86897D01*
Y83929D01*
X204947D01*
Y81464D01*
X190484D01*
Y83929D01*
X191637D01*
Y86897D01*
Y89866D01*
X190484D01*
X190484Y107492D01*
X190838Y107850D01*
X190838Y107850D01*
X212892Y107850D01*
X213245Y107497D01*
D02*
G37*
G36*
X336954Y107436D02*
Y105371D01*
X330460Y105367D01*
X330369Y105330D01*
X328657Y105330D01*
Y89805D01*
X327630D01*
Y86837D01*
Y83868D01*
X328657D01*
Y81404D01*
X314156D01*
Y83868D01*
X315111D01*
Y86837D01*
Y89805D01*
X314156D01*
X314156Y107431D01*
X314509Y107789D01*
X314509Y107789D01*
X336601Y107790D01*
X336954Y107436D01*
D02*
G37*
G36*
X136422Y120474D02*
X136436Y120468D01*
Y114974D01*
X127378D01*
Y104968D01*
X136635D01*
Y98474D01*
X111036D01*
Y120474D01*
X136422D01*
D02*
G37*
G36*
X107736Y98474D02*
X84137D01*
Y104968D01*
X84139Y104970D01*
X92136Y104974D01*
Y114974D01*
X84135Y114974D01*
X84135Y120134D01*
X84488Y120488D01*
X107736D01*
Y98474D01*
D02*
G37*
G36*
X259033Y120391D02*
X259047Y120385D01*
Y114891D01*
X249990D01*
Y104884D01*
X259247D01*
Y98391D01*
X233647D01*
Y120391D01*
X259033D01*
D02*
G37*
G36*
X230348Y98391D02*
X206748D01*
Y104884D01*
X206750Y104887D01*
X214748Y104891D01*
Y114891D01*
X206747Y114891D01*
X206746Y120051D01*
X207100Y120405D01*
X230348D01*
Y98391D01*
D02*
G37*
G36*
X382743Y120330D02*
X382757Y120324D01*
Y114830D01*
X373699D01*
Y104824D01*
X382956D01*
Y98330D01*
X357357D01*
Y120330D01*
X382743D01*
D02*
G37*
G36*
X354057Y98330D02*
X330457D01*
Y104824D01*
X330460Y104826D01*
X338457Y104830D01*
Y114830D01*
X330456Y114830D01*
X330456Y119990D01*
X330809Y120344D01*
X354057D01*
Y98330D01*
D02*
G37*
G36*
X199166Y163148D02*
X186520Y163148D01*
Y89866D01*
X185551D01*
Y86897D01*
Y83929D01*
X186520D01*
Y82038D01*
X175264D01*
X174846Y82456D01*
X174111Y82761D01*
X173315D01*
X172580Y82456D01*
X172162Y82038D01*
X171336D01*
X170840Y82535D01*
X170105Y82839D01*
X169309D01*
X168574Y82535D01*
X168077Y82038D01*
X167806D01*
X167309Y82535D01*
X166574Y82839D01*
X165778D01*
X165043Y82535D01*
X164546Y82038D01*
X164068D01*
X164057Y82064D01*
X163495Y82627D01*
X162759Y82932D01*
X161964D01*
X161229Y82627D01*
X160666Y82064D01*
X160655Y82038D01*
X155337D01*
Y83554D01*
X156412D01*
Y86523D01*
Y89491D01*
X155337D01*
Y140428D01*
X155915D01*
Y157176D01*
X155337D01*
Y163148D01*
X149328Y163148D01*
Y167881D01*
X150978D01*
Y176755D01*
Y185629D01*
X149328D01*
Y190500D01*
X199166D01*
Y163148D01*
D02*
G37*
G36*
X75000Y186004D02*
X72352D01*
Y177130D01*
X71852D01*
D01*
X72352D01*
Y168256D01*
X75000D01*
Y163154D01*
X61624D01*
Y89949D01*
X59057D01*
Y86981D01*
Y84012D01*
X61624D01*
Y81548D01*
X48299D01*
Y163154D01*
Y190474D01*
X75000D01*
Y186004D01*
D02*
G37*
G36*
X152758Y107576D02*
Y89491D01*
X150325D01*
Y86523D01*
Y83554D01*
X152758D01*
Y81465D01*
X138525D01*
Y83465D01*
X139545D01*
Y86434D01*
Y89402D01*
X138525D01*
Y105473D01*
X136720Y105474D01*
X136635Y105509D01*
X129636D01*
Y107523D01*
X129990Y107911D01*
X129991Y107911D01*
X152404Y107930D01*
X152758Y107576D01*
D02*
G37*
G36*
X320947Y162729D02*
X310178D01*
Y89805D01*
X309025D01*
Y86837D01*
Y83868D01*
X310178D01*
Y81441D01*
X279953D01*
Y83471D01*
X280684D01*
Y86440D01*
Y89408D01*
X279953D01*
Y162729D01*
X273018D01*
Y167002D01*
X274869D01*
Y175876D01*
Y184751D01*
X273018D01*
Y190331D01*
X320947D01*
Y162729D01*
D02*
G37*
G36*
X276482Y107494D02*
Y89408D01*
X274598D01*
Y86440D01*
Y83471D01*
X276482D01*
Y81382D01*
X261137D01*
Y83471D01*
X262290D01*
Y86440D01*
Y89408D01*
X261137D01*
Y105390D01*
X259331Y105390D01*
X259247Y105426D01*
X252247D01*
Y107440D01*
X252601Y107827D01*
X252602Y107828D01*
X276128Y107847D01*
X276482Y107494D01*
D02*
G37*
G36*
X399225Y107432D02*
Y89347D01*
X398072D01*
Y86379D01*
Y83410D01*
X399225D01*
Y81321D01*
X384846D01*
Y83410D01*
X385999D01*
Y86379D01*
Y89347D01*
X384846D01*
Y105329D01*
X383041Y105330D01*
X382956Y105365D01*
X375957D01*
Y107379D01*
X376311Y107767D01*
X376311Y107767D01*
X398872Y107786D01*
X399225Y107432D01*
D02*
G37*
G36*
X150390Y63500D02*
X153037Y60853D01*
X153037Y48722D01*
X149925Y45610D01*
X126771Y45610D01*
X126741Y45627D01*
X125615Y45929D01*
X124449D01*
X123322Y45627D01*
X123292Y45610D01*
X115983D01*
X115954Y45627D01*
X114827Y45929D01*
X113661D01*
X112535Y45627D01*
X112505Y45610D01*
X105196D01*
X105166Y45627D01*
X104040Y45929D01*
X102874D01*
X101747Y45627D01*
X101718Y45610D01*
X100545D01*
X98437Y43503D01*
Y38082D01*
X95625Y35591D01*
X89373D01*
X86887Y37925D01*
Y60363D01*
X90024Y63500D01*
X128575Y63500D01*
X150390Y63500D01*
D02*
G37*
G36*
X275635Y63500D02*
X278282Y60853D01*
X278283Y48723D01*
X275582Y46022D01*
X227189Y46022D01*
X223683Y42516D01*
Y37278D01*
X221778Y35591D01*
X213725Y35591D01*
X212132Y37086D01*
Y60363D01*
X215269Y63500D01*
X253820Y63500D01*
X275635Y63500D01*
D02*
G37*
G36*
X396578Y63500D02*
X399225Y60853D01*
X399225Y48722D01*
X396113Y45610D01*
X351002D01*
X349076Y43684D01*
Y37948D01*
X346414Y35591D01*
X340321D01*
X338288Y37499D01*
Y60489D01*
X341299Y63500D01*
X374763Y63500D01*
X396578Y63500D01*
D02*
G37*
%LPC*%
G36*
X267571Y322363D02*
X258673D01*
Y313465D01*
X267571D01*
Y322363D01*
D02*
G37*
G36*
X261607Y275956D02*
X259138D01*
Y273291D01*
X261607D01*
Y275956D01*
D02*
G37*
G36*
X258138D02*
X255670D01*
Y273291D01*
X258138D01*
Y275956D01*
D02*
G37*
G36*
X261607Y272291D02*
X259138D01*
Y269626D01*
X261607D01*
Y272291D01*
D02*
G37*
G36*
X258138D02*
X255670D01*
Y269626D01*
X258138D01*
Y272291D01*
D02*
G37*
G36*
X278055Y272117D02*
X271649D01*
Y268468D01*
X278055D01*
Y272117D01*
D02*
G37*
G36*
X270649D02*
X264244D01*
Y268468D01*
X270649D01*
Y272117D01*
D02*
G37*
G36*
X278055Y267468D02*
X271649D01*
Y263818D01*
X278055D01*
Y267468D01*
D02*
G37*
G36*
X270649D02*
X264244D01*
Y263818D01*
X270649D01*
Y267468D01*
D02*
G37*
G36*
X86929Y256354D02*
X78071D01*
Y247496D01*
X86929D01*
Y256354D01*
D02*
G37*
G36*
X77629Y231630D02*
X76190D01*
X74779Y231349D01*
X73450Y230799D01*
X72254Y229999D01*
X71237Y228982D01*
X70438Y227786D01*
X69887Y226457D01*
X69606Y225046D01*
Y223607D01*
X69887Y222197D01*
X70438Y220867D01*
X71237Y219671D01*
X72254Y218654D01*
X73450Y217855D01*
X74779Y217304D01*
X76190Y217024D01*
X77629D01*
X79040Y217304D01*
X80369Y217855D01*
X81565Y218654D01*
X82582Y219671D01*
X83381Y220867D01*
X83932Y222197D01*
X84213Y223607D01*
Y225046D01*
X83932Y226457D01*
X83381Y227786D01*
X82582Y228982D01*
X81565Y229999D01*
X80369Y230799D01*
X79040Y231349D01*
X77629Y231630D01*
D02*
G37*
G36*
X76789Y158051D02*
X72352D01*
Y149677D01*
X76789D01*
Y158051D01*
D02*
G37*
G36*
X197074Y157676D02*
X192637D01*
Y149302D01*
X197074D01*
Y157676D01*
D02*
G37*
G36*
X150978D02*
X146542D01*
Y149302D01*
X150978D01*
Y157676D01*
D02*
G37*
G36*
X274869Y156798D02*
X270432D01*
Y148424D01*
X274869D01*
Y156798D01*
D02*
G37*
G36*
X76789Y148677D02*
X72352D01*
Y140303D01*
X76789D01*
Y148677D01*
D02*
G37*
G36*
X197074Y148302D02*
X192637D01*
Y139928D01*
X197074D01*
Y148302D01*
D02*
G37*
G36*
X150978D02*
X146542D01*
Y139928D01*
X150978D01*
Y148302D01*
D02*
G37*
G36*
X274869Y147424D02*
X270432D01*
Y139050D01*
X274869D01*
Y147424D01*
D02*
G37*
G36*
X403015Y184290D02*
X398578D01*
Y175916D01*
X403015D01*
Y184290D01*
D02*
G37*
G36*
Y174916D02*
X398578D01*
Y166542D01*
X403015D01*
Y174916D01*
D02*
G37*
G36*
X407824Y89347D02*
X405158D01*
Y86879D01*
X407824D01*
Y89347D01*
D02*
G37*
G36*
X404158D02*
X401493D01*
Y86879D01*
X404158D01*
Y89347D01*
D02*
G37*
G36*
Y85879D02*
X401493D01*
Y83410D01*
X404158D01*
Y85879D01*
D02*
G37*
G36*
X320048Y156798D02*
X315612D01*
Y148424D01*
X320048D01*
Y156798D01*
D02*
G37*
G36*
X397578Y156337D02*
X393141D01*
Y147963D01*
X397578D01*
Y156337D01*
D02*
G37*
G36*
X320048Y147424D02*
X315612D01*
Y139050D01*
X320048D01*
Y147424D01*
D02*
G37*
G36*
X397578Y146963D02*
X393141D01*
Y138589D01*
X397578D01*
Y146963D01*
D02*
G37*
G36*
X80310Y89949D02*
X77644D01*
Y87481D01*
X80310D01*
Y89949D01*
D02*
G37*
G36*
X68809D02*
X66144D01*
Y87481D01*
X68809D01*
Y89949D01*
D02*
G37*
G36*
X80310Y86481D02*
X77644D01*
Y84012D01*
X80310D01*
Y86481D01*
D02*
G37*
G36*
X68809Y86481D02*
X66144D01*
Y84012D01*
X68809D01*
Y86481D01*
D02*
G37*
G36*
X195303Y89866D02*
X192637D01*
Y87397D01*
X195303D01*
Y89866D01*
D02*
G37*
G36*
X202921D02*
X200255D01*
Y87397D01*
X202921D01*
Y89866D01*
D02*
G37*
G36*
Y86397D02*
X200255D01*
Y83929D01*
X202921D01*
Y86397D01*
D02*
G37*
G36*
X195303Y86397D02*
X192637D01*
Y83929D01*
X195303D01*
Y86397D01*
D02*
G37*
G36*
X318777Y89805D02*
X316111D01*
Y87337D01*
X318777D01*
Y89805D01*
D02*
G37*
G36*
X326630D02*
X323965D01*
Y87337D01*
X326630D01*
Y89805D01*
D02*
G37*
G36*
Y86337D02*
X323965D01*
Y83868D01*
X326630D01*
Y86337D01*
D02*
G37*
G36*
X318777Y86337D02*
X316111D01*
Y83868D01*
X318777D01*
Y86337D01*
D02*
G37*
G36*
X156415Y185629D02*
X151978D01*
Y177255D01*
X156415D01*
Y185629D01*
D02*
G37*
G36*
X197074D02*
X192637D01*
Y177255D01*
X197074D01*
Y185629D01*
D02*
G37*
G36*
X191637D02*
X187200D01*
Y177255D01*
X191637D01*
Y185629D01*
D02*
G37*
G36*
X197074Y176255D02*
X192637D01*
Y167881D01*
X197074D01*
Y176255D01*
D02*
G37*
G36*
X191637D02*
X187200D01*
Y167881D01*
X191637D01*
Y176255D01*
D02*
G37*
G36*
X156415D02*
X151978D01*
Y167881D01*
X156415D01*
Y176255D01*
D02*
G37*
G36*
X184551Y89866D02*
X181886D01*
Y87397D01*
X184551D01*
Y89866D01*
D02*
G37*
G36*
X160077Y89491D02*
X157412D01*
Y87023D01*
X160077D01*
Y89491D01*
D02*
G37*
G36*
X184551Y86397D02*
X181886D01*
Y83929D01*
X184551D01*
Y86397D01*
D02*
G37*
G36*
X160077Y86023D02*
X157412D01*
Y83554D01*
X160077D01*
Y86023D01*
D02*
G37*
G36*
X71352Y186004D02*
X66915D01*
Y177630D01*
X71352D01*
Y186004D01*
D02*
G37*
G36*
Y176630D02*
X66915D01*
Y168256D01*
X71352D01*
Y176630D01*
D02*
G37*
G36*
X58057Y89949D02*
X55392D01*
Y87481D01*
X58057D01*
Y89949D01*
D02*
G37*
G36*
Y86481D02*
X55392D01*
Y84012D01*
X58057D01*
Y86481D01*
D02*
G37*
G36*
X149325Y89491D02*
X146660D01*
Y87023D01*
X149325D01*
Y89491D01*
D02*
G37*
G36*
X143211Y89402D02*
X140545D01*
Y86934D01*
X143211D01*
Y89402D01*
D02*
G37*
G36*
X149325Y86023D02*
X146660D01*
Y83554D01*
X149325D01*
Y86023D01*
D02*
G37*
G36*
X143211Y85934D02*
X140545D01*
Y83465D01*
X143211D01*
Y85934D01*
D02*
G37*
G36*
X280306Y184751D02*
X275869D01*
Y176376D01*
X280306D01*
Y184751D01*
D02*
G37*
G36*
X320048D02*
X315612D01*
Y176376D01*
X320048D01*
Y184751D01*
D02*
G37*
G36*
X314612D02*
X310174D01*
Y176376D01*
X314612D01*
Y184751D01*
D02*
G37*
G36*
X320048Y175376D02*
X315612D01*
Y167002D01*
X320048D01*
Y175376D01*
D02*
G37*
G36*
X314612D02*
X310174D01*
Y167002D01*
X314612D01*
Y175376D01*
D02*
G37*
G36*
X280306D02*
X275869D01*
Y167002D01*
X280306D01*
Y175376D01*
D02*
G37*
G36*
X308025Y89805D02*
X305360D01*
Y87337D01*
X308025D01*
Y89805D01*
D02*
G37*
G36*
X284350Y89408D02*
X281684D01*
Y86940D01*
X284350D01*
Y89408D01*
D02*
G37*
G36*
X308025Y86337D02*
X305360D01*
Y83868D01*
X308025D01*
Y86337D01*
D02*
G37*
G36*
X284350Y85940D02*
X281684D01*
Y83471D01*
X284350D01*
Y85940D01*
D02*
G37*
G36*
X273598Y89408D02*
X270932D01*
Y86940D01*
X273598D01*
Y89408D01*
D02*
G37*
G36*
X265955D02*
X263290D01*
Y86940D01*
X265955D01*
Y89408D01*
D02*
G37*
G36*
X273598Y85940D02*
X270932D01*
Y83471D01*
X273598D01*
Y85940D01*
D02*
G37*
G36*
X265955Y85940D02*
X263290D01*
Y83471D01*
X265955D01*
Y85940D01*
D02*
G37*
G36*
X389665Y89347D02*
X387000D01*
Y86879D01*
X389665D01*
Y89347D01*
D02*
G37*
G36*
X397072D02*
X394407D01*
Y86879D01*
X397072D01*
Y89347D01*
D02*
G37*
G36*
Y85879D02*
X394407D01*
Y83410D01*
X397072D01*
Y85879D01*
D02*
G37*
G36*
X389665Y85879D02*
X387000D01*
Y83410D01*
X389665D01*
Y85879D01*
D02*
G37*
%LPD*%
D19*
X340709Y138764D02*
D03*
X343858D02*
D03*
X347008D02*
D03*
X350157D02*
D03*
X353307D02*
D03*
X356457D02*
D03*
X359606D02*
D03*
X362756D02*
D03*
X365905D02*
D03*
X369055D02*
D03*
X372205D02*
D03*
Y93264D02*
D03*
X369055D02*
D03*
X365905D02*
D03*
X362756D02*
D03*
X359606D02*
D03*
X356457D02*
D03*
X353307D02*
D03*
X350157D02*
D03*
X347008D02*
D03*
X343858D02*
D03*
X340709D02*
D03*
X216999Y93325D02*
D03*
X220149D02*
D03*
X223298D02*
D03*
X226448D02*
D03*
X229598D02*
D03*
X232747D02*
D03*
X235897D02*
D03*
X239047D02*
D03*
X242196D02*
D03*
X245346D02*
D03*
X248495D02*
D03*
Y138825D02*
D03*
X245346D02*
D03*
X242196D02*
D03*
X239047D02*
D03*
X235897D02*
D03*
X232747D02*
D03*
X229598D02*
D03*
X226448D02*
D03*
X223298D02*
D03*
X220149D02*
D03*
X216999D02*
D03*
X94388Y93408D02*
D03*
X97537D02*
D03*
X100687D02*
D03*
X103837D02*
D03*
X106986D02*
D03*
X110136D02*
D03*
X113286D02*
D03*
X116435D02*
D03*
X119585D02*
D03*
X122734D02*
D03*
X125884D02*
D03*
Y138908D02*
D03*
X122734D02*
D03*
X119585D02*
D03*
X116435D02*
D03*
X113286D02*
D03*
X110136D02*
D03*
X106986D02*
D03*
X103837D02*
D03*
X100687D02*
D03*
X97537D02*
D03*
X94388D02*
D03*
D20*
X379207Y131762D02*
D03*
Y128613D02*
D03*
Y125463D02*
D03*
Y122314D02*
D03*
Y119164D02*
D03*
Y116014D02*
D03*
Y112865D02*
D03*
Y109715D02*
D03*
Y106565D02*
D03*
Y103416D02*
D03*
Y100266D02*
D03*
X333707D02*
D03*
Y103416D02*
D03*
Y106565D02*
D03*
Y109715D02*
D03*
Y112865D02*
D03*
Y116014D02*
D03*
Y119164D02*
D03*
Y122314D02*
D03*
Y125463D02*
D03*
Y128613D02*
D03*
Y131762D02*
D03*
X209997Y131823D02*
D03*
Y128673D02*
D03*
Y125524D02*
D03*
Y122374D02*
D03*
Y119225D02*
D03*
Y116075D02*
D03*
Y112925D02*
D03*
Y109776D02*
D03*
Y106626D02*
D03*
Y103477D02*
D03*
Y100327D02*
D03*
X255497D02*
D03*
Y103477D02*
D03*
Y106626D02*
D03*
Y109776D02*
D03*
Y112925D02*
D03*
Y116075D02*
D03*
Y119225D02*
D03*
Y122374D02*
D03*
Y125524D02*
D03*
Y128673D02*
D03*
Y131823D02*
D03*
X87386Y131906D02*
D03*
Y128757D02*
D03*
Y125607D02*
D03*
Y122458D02*
D03*
Y119308D02*
D03*
Y116158D02*
D03*
Y113009D02*
D03*
Y109859D02*
D03*
Y106710D02*
D03*
Y103560D02*
D03*
Y100410D02*
D03*
X132886D02*
D03*
Y103560D02*
D03*
Y106710D02*
D03*
Y109859D02*
D03*
Y113009D02*
D03*
Y116158D02*
D03*
Y119308D02*
D03*
Y122458D02*
D03*
Y125607D02*
D03*
Y128757D02*
D03*
Y131906D02*
D03*
D22*
X372910Y76436D02*
D03*
Y81554D02*
D03*
X368973D02*
D03*
Y76436D02*
D03*
X248807Y78544D02*
D03*
Y83662D02*
D03*
X244870D02*
D03*
Y78544D02*
D03*
X122781Y79938D02*
D03*
Y85056D02*
D03*
X126718D02*
D03*
Y79938D02*
D03*
D23*
X386956Y99058D02*
D03*
X413137D02*
D03*
X325278Y98668D02*
D03*
X299096D02*
D03*
X264247Y98728D02*
D03*
X290428D02*
D03*
X201935Y99426D02*
D03*
X175754D02*
D03*
X166459Y99510D02*
D03*
X140278D02*
D03*
X51547D02*
D03*
X77728D02*
D03*
D25*
X271149Y285960D02*
D03*
Y267968D02*
D03*
D26*
X299417Y276964D02*
D03*
D27*
X203648Y239867D02*
D03*
X208766D02*
D03*
Y235930D02*
D03*
X203648D02*
D03*
D28*
X228372Y228671D02*
D03*
X226404D02*
D03*
X224435D02*
D03*
X222467D02*
D03*
X220498D02*
D03*
X218530D02*
D03*
X216561D02*
D03*
X214593D02*
D03*
Y209396D02*
D03*
X216561D02*
D03*
X218530D02*
D03*
X220498D02*
D03*
X222467D02*
D03*
X224435D02*
D03*
X226404D02*
D03*
X228372D02*
D03*
D29*
X211845Y225923D02*
D03*
Y223955D02*
D03*
Y221986D02*
D03*
Y220018D02*
D03*
Y218049D02*
D03*
Y216081D02*
D03*
Y214112D02*
D03*
Y212144D02*
D03*
X231120D02*
D03*
Y214112D02*
D03*
Y216081D02*
D03*
Y218049D02*
D03*
Y220018D02*
D03*
Y221986D02*
D03*
Y223955D02*
D03*
Y225923D02*
D03*
D30*
X221482Y219033D02*
D03*
D31*
X310773Y256373D02*
D03*
Y252042D02*
D03*
D35*
X71319Y289681D02*
D03*
Y278894D02*
D03*
Y268106D02*
D03*
Y257319D02*
D03*
X82500Y295075D02*
D03*
Y284287D02*
D03*
Y273500D02*
D03*
Y262713D02*
D03*
X376044Y41181D02*
D03*
X365257D02*
D03*
X354470D02*
D03*
X343682D02*
D03*
X381438Y30000D02*
D03*
X370651D02*
D03*
X359863D02*
D03*
X349076D02*
D03*
X250686Y41500D02*
D03*
X239899D02*
D03*
X229111D02*
D03*
X218324D02*
D03*
X256080Y30319D02*
D03*
X245292D02*
D03*
X234505D02*
D03*
X223718D02*
D03*
X125032Y41500D02*
D03*
X114244D02*
D03*
X103457D02*
D03*
X92669D02*
D03*
X130425Y30319D02*
D03*
X119638D02*
D03*
X108851D02*
D03*
X98063D02*
D03*
D36*
X82500Y251925D02*
D03*
D37*
X76910Y224327D02*
D03*
Y322713D02*
D03*
X310690Y35591D02*
D03*
X409076D02*
D03*
X185332Y35909D02*
D03*
X283718D02*
D03*
X59677D02*
D03*
X158063D02*
D03*
D38*
X338288Y30000D02*
D03*
X212930Y30319D02*
D03*
X87276D02*
D03*
D46*
X334442Y257850D02*
D03*
X336411D02*
D03*
X338380D02*
D03*
X340348D02*
D03*
X342317D02*
D03*
X344285D02*
D03*
X346253D02*
D03*
X348222D02*
D03*
X350190D02*
D03*
X352159D02*
D03*
X354128D02*
D03*
X356096D02*
D03*
X358065D02*
D03*
X360033D02*
D03*
X362002D02*
D03*
X363970D02*
D03*
Y214150D02*
D03*
X362002D02*
D03*
X360033D02*
D03*
X358065D02*
D03*
X356096D02*
D03*
X354128D02*
D03*
X352159D02*
D03*
X350190D02*
D03*
X348222D02*
D03*
X346253D02*
D03*
X344285D02*
D03*
X342317D02*
D03*
X340348D02*
D03*
X338380D02*
D03*
X336411D02*
D03*
X334442D02*
D03*
D47*
X371057Y250764D02*
D03*
Y248795D02*
D03*
Y246827D02*
D03*
Y244858D02*
D03*
Y242890D02*
D03*
Y240921D02*
D03*
Y238953D02*
D03*
Y236984D02*
D03*
Y235016D02*
D03*
Y233047D02*
D03*
Y231079D02*
D03*
Y229110D02*
D03*
Y227142D02*
D03*
Y225173D02*
D03*
Y223205D02*
D03*
Y221236D02*
D03*
X327356D02*
D03*
Y223205D02*
D03*
Y225173D02*
D03*
Y227142D02*
D03*
Y229110D02*
D03*
Y231079D02*
D03*
Y233047D02*
D03*
Y235016D02*
D03*
Y236984D02*
D03*
Y238953D02*
D03*
Y240921D02*
D03*
Y242890D02*
D03*
Y244858D02*
D03*
Y246827D02*
D03*
Y248795D02*
D03*
Y250764D02*
D03*
D48*
X242903Y172711D02*
D03*
X249990D02*
D03*
X404658Y86379D02*
D03*
X397572D02*
D03*
X308525Y86837D02*
D03*
X315612D02*
D03*
X379413Y86379D02*
D03*
X386500D02*
D03*
X334217Y86837D02*
D03*
X327130D02*
D03*
X387300Y76436D02*
D03*
X380213D02*
D03*
X358244Y160840D02*
D03*
X351157D02*
D03*
X366655Y164777D02*
D03*
X373742D02*
D03*
X366612Y172651D02*
D03*
X373699D02*
D03*
X358244Y152697D02*
D03*
X351157D02*
D03*
X366655Y156903D02*
D03*
X373742D02*
D03*
X281184Y86440D02*
D03*
X274098D02*
D03*
X185051Y86897D02*
D03*
X192137D02*
D03*
X255703Y86440D02*
D03*
X262790D02*
D03*
X210507Y86897D02*
D03*
X203421D02*
D03*
X263914Y76360D02*
D03*
X256827D02*
D03*
X234534Y160900D02*
D03*
X227448D02*
D03*
X242946Y164837D02*
D03*
X250033D02*
D03*
X234534Y152758D02*
D03*
X227448D02*
D03*
X242946Y156963D02*
D03*
X250033D02*
D03*
X294607Y250977D02*
D03*
X301694D02*
D03*
X155024Y297710D02*
D03*
X162110D02*
D03*
X153370Y314823D02*
D03*
X160457D02*
D03*
X65644Y86981D02*
D03*
X58557D02*
D03*
X149825Y86523D02*
D03*
X156912D02*
D03*
X140045Y86434D02*
D03*
X132959D02*
D03*
X80809Y86981D02*
D03*
X87896D02*
D03*
X133893Y77787D02*
D03*
X140979D02*
D03*
X104836Y160984D02*
D03*
X111923D02*
D03*
X127421Y164921D02*
D03*
X120335D02*
D03*
X127378Y172795D02*
D03*
X120291D02*
D03*
X104836Y152841D02*
D03*
X111923D02*
D03*
X127421Y157047D02*
D03*
X120335D02*
D03*
X331969Y271518D02*
D03*
X339056D02*
D03*
X310773Y244837D02*
D03*
X317860D02*
D03*
X339056Y279515D02*
D03*
X331969D02*
D03*
X330664Y203442D02*
D03*
X337750D02*
D03*
X301694Y259015D02*
D03*
X294607D02*
D03*
X287692Y294759D02*
D03*
X280605D02*
D03*
X374091Y203958D02*
D03*
X367005D02*
D03*
X292102Y238965D02*
D03*
X299188D02*
D03*
D49*
X315111Y175876D02*
D03*
Y147924D02*
D03*
X398078Y175416D02*
D03*
Y147463D02*
D03*
X275369Y175876D02*
D03*
Y147924D02*
D03*
X192137Y176755D02*
D03*
Y148802D02*
D03*
X71852Y177130D02*
D03*
Y149177D02*
D03*
X151479Y148802D02*
D03*
Y176755D02*
D03*
D50*
X342872Y77639D02*
D03*
Y84725D02*
D03*
X219206Y77560D02*
D03*
Y84647D02*
D03*
X258639Y279878D02*
D03*
Y272791D02*
D03*
X116655Y322050D02*
D03*
Y314964D02*
D03*
X413137Y65500D02*
D03*
Y72587D02*
D03*
X146769Y297700D02*
D03*
Y290614D02*
D03*
X145441Y315020D02*
D03*
Y322107D02*
D03*
X125375Y314964D02*
D03*
Y322050D02*
D03*
X122938Y297293D02*
D03*
Y290207D02*
D03*
X138652Y297710D02*
D03*
Y290624D02*
D03*
X136762Y315020D02*
D03*
Y322107D02*
D03*
X114217Y290207D02*
D03*
Y297293D02*
D03*
X299188Y230755D02*
D03*
Y223668D02*
D03*
X194106Y236717D02*
D03*
Y229631D02*
D03*
X387591Y203239D02*
D03*
Y196152D02*
D03*
X398733Y203239D02*
D03*
Y196152D02*
D03*
X410508Y203239D02*
D03*
Y196152D02*
D03*
X96615Y84988D02*
D03*
Y77902D02*
D03*
X249395Y211947D02*
D03*
Y219033D02*
D03*
X317080Y223668D02*
D03*
Y230755D02*
D03*
X383706Y255861D02*
D03*
Y248774D02*
D03*
X308805Y223668D02*
D03*
Y230755D02*
D03*
X241296Y219033D02*
D03*
Y211947D02*
D03*
D51*
X387591Y218135D02*
D03*
Y212230D02*
D03*
X398733Y218135D02*
D03*
Y212230D02*
D03*
X410508Y218135D02*
D03*
Y212230D02*
D03*
D52*
X418072Y249662D02*
D03*
Y240607D02*
D03*
D53*
X407029Y240017D02*
D03*
Y250253D02*
D03*
Y242576D02*
D03*
Y245135D02*
D03*
Y247694D02*
D03*
D54*
X336257Y221236D02*
X338380Y219113D01*
Y203526D02*
Y219113D01*
X187361Y236717D02*
X194106D01*
X235897Y210065D02*
X237778Y211947D01*
X229299Y203467D02*
X235897Y210065D01*
X235727D02*
X235897D01*
X249990Y172711D02*
Y178632D01*
X374091Y203958D02*
X380850D01*
X387591Y203239D02*
Y212230D01*
X398733Y203239D02*
Y212230D01*
X410508Y203239D02*
Y212230D01*
X404658Y86379D02*
X404855D01*
X413137Y78097D01*
Y72587D02*
Y78097D01*
X380213Y76436D02*
Y81173D01*
X372910Y81554D02*
Y86940D01*
X343157Y149807D02*
X350157Y142806D01*
X351157Y149060D02*
X353307Y146910D01*
X356457Y138764D02*
Y146973D01*
X353307Y138764D02*
Y146910D01*
X373742Y166323D02*
X376657Y163408D01*
X373742Y166323D02*
Y172608D01*
X340709Y138764D02*
X343858D01*
X356457Y146973D02*
X358244Y148760D01*
X341018Y148435D02*
X347008Y142445D01*
Y138764D02*
Y142445D01*
X350157Y138764D02*
Y142806D01*
X373699Y172651D02*
X373742Y172608D01*
X373699Y172651D02*
Y178632D01*
X366139Y72792D02*
X401749D01*
X405854Y67909D02*
X407217Y69273D01*
X365057Y70315D02*
X404658D01*
X407217Y69273D02*
Y71376D01*
X405932Y72662D02*
X407217Y71376D01*
X401879Y72662D02*
X405932D01*
X401749Y72792D02*
X401879Y72662D01*
X312068Y67656D02*
X312260Y67848D01*
X312915D01*
X312976Y67909D01*
X302352Y69728D02*
X347749D01*
X304333Y71644D02*
X346541D01*
X305957Y73644D02*
X345392D01*
X296983Y78995D02*
X304333Y71644D01*
X300779Y78822D02*
X305957Y73644D01*
X347749Y69728D02*
X353307Y75286D01*
X346541Y71644D02*
X350157Y75260D01*
X345392Y73644D02*
X347008Y75260D01*
X337959Y77639D02*
X342872D01*
X347008Y75260D02*
Y93264D01*
X350157Y75260D02*
Y93264D01*
X353307Y75286D02*
Y93264D01*
X356523Y87404D02*
X356590Y87337D01*
X356523Y87404D02*
Y93198D01*
X356457Y93264D02*
X356523Y93198D01*
X343157Y149807D02*
Y174398D01*
X341018Y148435D02*
Y172711D01*
X359606Y138764D02*
Y144707D01*
X358244Y148760D02*
Y152697D01*
X351157Y149060D02*
Y152697D01*
Y160840D01*
X358244Y152697D02*
Y160840D01*
X351157D02*
Y167257D01*
X358244Y160840D02*
Y167257D01*
X359606Y75765D02*
X365057Y70315D01*
X362756Y76175D02*
X366139Y72792D01*
X368973Y76436D02*
X372910D01*
X380213D01*
X359606Y75765D02*
Y93264D01*
X362756Y76175D02*
Y93264D01*
X369024Y81404D02*
Y91183D01*
X369055Y91214D01*
Y93264D01*
X387300Y76436D02*
X392960D01*
X387103D02*
X387300D01*
X312976Y67909D02*
X405854D01*
X241852Y73014D02*
X279306D01*
X241196Y70622D02*
X280810D01*
X239656Y68813D02*
X282904D01*
X235897Y75921D02*
Y93325D01*
X214553Y77560D02*
X219206D01*
X223298Y78751D02*
Y93325D01*
X226448Y78783D02*
Y93325D01*
X229598Y78871D02*
Y93325D01*
X235897Y75921D02*
X241196Y70622D01*
X229598Y78871D02*
X239656Y68813D01*
X214486Y77493D02*
X214553Y77560D01*
X239047Y75820D02*
Y93325D01*
Y75820D02*
X241852Y73014D01*
X280810Y70622D02*
X289239Y79052D01*
X282904Y68813D02*
X293086Y78995D01*
X218548Y148659D02*
Y175391D01*
X227448Y160900D02*
Y167318D01*
Y152758D02*
Y160900D01*
Y149120D02*
Y152758D01*
X220340Y150011D02*
Y172860D01*
X217522Y190038D02*
X218530Y191045D01*
X220566Y191096D02*
X221625Y190038D01*
X234534Y148821D02*
Y152758D01*
Y160900D01*
Y167318D01*
X218548Y148659D02*
X223298Y143908D01*
X227448Y149120D02*
X229598Y146970D01*
X232747Y147034D02*
X234534Y148821D01*
X220340Y150011D02*
X226448Y143903D01*
X245108Y93087D02*
X245346Y93325D01*
X244870Y83662D02*
X245108Y83900D01*
Y93087D01*
X223298Y138825D02*
Y143908D01*
X232747Y138825D02*
Y147034D01*
X229598Y138825D02*
Y146970D01*
X235897Y138825D02*
Y142595D01*
X226448Y138825D02*
Y143903D01*
X235897Y142595D02*
X238470Y145168D01*
X216999Y138825D02*
X220149D01*
Y143875D01*
X249990Y172711D02*
X250033Y172668D01*
Y164837D02*
Y172668D01*
X97537Y138908D02*
Y143958D01*
X94388Y138908D02*
X97537D01*
X160466Y205609D02*
Y214187D01*
X199145Y252866D01*
X338298Y263893D02*
X338345Y263847D01*
Y257885D02*
X338380Y257850D01*
X338345Y257885D02*
Y263847D01*
X199145Y252866D02*
X224408D01*
X113286Y146133D02*
X116158Y149005D01*
X113286Y138908D02*
Y146133D01*
X226404Y213310D02*
X226805Y213711D01*
X114342Y284414D02*
Y290332D01*
X262311Y279878D02*
X268393Y285960D01*
X271149D01*
X258639Y279878D02*
X262311D01*
X251280D02*
X258639D01*
X271149Y291149D02*
X274759Y294759D01*
X280605D01*
X271149Y285960D02*
Y291149D01*
X287000Y259015D02*
X294607D01*
X301694D02*
X301891D01*
X322392Y326861D02*
X346253Y303000D01*
Y269628D02*
Y303000D01*
X321253Y335469D02*
X350174Y306548D01*
Y269619D02*
Y306548D01*
X122938Y297293D02*
X122938Y297293D01*
X114217Y297293D02*
X122938D01*
X106293D02*
X114217D01*
X82500Y273500D02*
X106293Y297293D01*
X339056Y279515D02*
Y286450D01*
X116655Y322050D02*
Y327692D01*
X346253Y269628D02*
X352159Y263723D01*
Y257850D02*
Y263723D01*
X356096Y257850D02*
Y263697D01*
X350174Y269619D02*
X356096Y263697D01*
X358065Y257850D02*
Y266489D01*
X353035Y271518D02*
X358065Y266489D01*
X136762Y322107D02*
Y328671D01*
X138652Y284208D02*
Y290624D01*
X114217Y290207D02*
X114342Y290332D01*
X360462Y194678D02*
X360475D01*
X358065Y197076D02*
X360462Y194678D01*
X405932Y65500D02*
X413137D01*
X354128Y205051D02*
Y214150D01*
X353035Y203958D02*
X354128Y205051D01*
X358065Y197076D02*
Y214150D01*
X356096Y194839D02*
Y214150D01*
X361926Y227142D02*
X371057D01*
X327356Y233047D02*
X332239D01*
X334207Y235016D01*
X207764Y218049D02*
X211845D01*
X360033Y257850D02*
Y267000D01*
X299187Y223667D02*
X299188Y223668D01*
X293086Y225334D02*
X294752Y223667D01*
X299187D01*
X350174Y214166D02*
X350190Y214150D01*
X350174Y214166D02*
Y222791D01*
X347238Y225727D02*
X350174Y222791D01*
X226404Y231689D02*
X231101Y236386D01*
X242431D01*
X226404Y228671D02*
Y231689D01*
X233717Y228671D02*
X239047Y234000D01*
X228372Y228671D02*
X233717D01*
X352159Y214150D02*
Y224928D01*
X317902Y236000D02*
X322823Y231079D01*
X305547Y236000D02*
X317902D01*
X346253Y221236D02*
X348222Y219268D01*
Y214150D02*
Y219268D01*
X234172Y223955D02*
X238176Y227959D01*
X244995D01*
X231120Y223955D02*
X234172D01*
X237876Y224705D02*
X241188D01*
X233190Y220019D02*
X237876Y224705D01*
X231120Y220018D02*
X231121Y220019D01*
X233190D01*
X367026Y197944D02*
Y203937D01*
X367005Y203958D02*
X367026Y203937D01*
X326014Y207895D02*
X330467Y203442D01*
X325930Y207895D02*
X326014D01*
X330467Y203442D02*
X330664D01*
X340334Y214163D02*
Y221222D01*
Y214163D02*
X340348Y214150D01*
X340320Y221236D02*
X340334Y221222D01*
X231120Y218049D02*
X234437D01*
X235656Y219268D01*
X235897D01*
X203648Y216081D02*
X211845D01*
X228082Y212433D02*
X228873D01*
X229161Y212145D02*
X231118D01*
X226805Y213711D02*
X228082Y212433D01*
X228873D02*
X229161Y212145D01*
X231118D02*
X231120Y212144D01*
X221482Y219033D02*
X222467Y220018D01*
Y228671D01*
X218530Y221986D02*
X221482Y219033D01*
X218530Y221986D02*
Y228671D01*
X226404Y209396D02*
Y213310D01*
X365218Y248635D02*
Y252012D01*
Y248635D02*
X367026Y246827D01*
X371057D01*
X365218Y252012D02*
X380033Y266827D01*
Y275578D01*
X363970Y269515D02*
X370033Y275578D01*
X363970Y257850D02*
Y269515D01*
X304325Y230755D02*
X308805D01*
X299188Y223668D02*
X308805D01*
X277338Y199796D02*
X283426D01*
X302280Y218649D01*
X237778Y211947D02*
X241296D01*
X225351Y203467D02*
X229299D01*
X241296Y211947D02*
X249395D01*
X226404Y206977D02*
X227772Y205609D01*
X226404Y206977D02*
Y209396D01*
X224435Y204383D02*
Y209396D01*
Y204383D02*
X225351Y203467D01*
X241296Y219033D02*
X249395D01*
X383706Y255861D02*
X389560D01*
X391038Y250253D02*
X407029D01*
X389560Y248774D02*
X391038Y250253D01*
X383706Y248774D02*
X389560D01*
X294607Y250977D02*
Y259015D01*
X292090Y238953D02*
X292102Y238965D01*
X285704Y238953D02*
X292090D01*
X302280Y218649D02*
X318827D01*
X111923Y160984D02*
Y167289D01*
X127378Y172795D02*
Y178474D01*
X208766Y235930D02*
X215600D01*
X218530Y233000D01*
X203648Y235930D02*
Y239867D01*
X187200Y229631D02*
X194106D01*
Y236717D02*
X194893Y235930D01*
X203648D01*
X214958Y239867D02*
X220498Y234327D01*
Y228671D02*
Y234327D01*
X208766Y239867D02*
X214958D01*
X249395Y225010D02*
X249453Y225068D01*
X249395Y219033D02*
Y225010D01*
X322823Y231079D02*
X327356D01*
X340364Y247768D02*
Y257835D01*
Y247768D02*
X340379Y247753D01*
X340348Y257850D02*
X340364Y257835D01*
X213993Y233000D02*
X216560Y230433D01*
Y228672D02*
X216561Y228671D01*
X216560Y228672D02*
Y230433D01*
X199707Y209396D02*
X214593D01*
X199707Y214111D02*
X199708Y214111D01*
X211844D01*
X211845Y214112D01*
X363536Y207230D02*
Y207230D01*
X362002Y208765D02*
Y214150D01*
Y208765D02*
X363536Y207230D01*
Y207230D02*
X366808Y203958D01*
X279647Y193016D02*
X296983D01*
X346253Y195827D02*
Y214150D01*
X296983Y193016D02*
X343443D01*
X346253Y195827D01*
X323382Y223205D02*
X327356D01*
X318827Y218649D02*
X323382Y223205D01*
X306664Y212263D02*
X326873D01*
X328759Y214150D02*
X334442D01*
X326873Y212263D02*
X328759Y214150D01*
X323177Y215183D02*
X327356Y219362D01*
X304325Y215183D02*
X323177D01*
X287000Y197858D02*
X304325Y215183D01*
X292177Y197776D02*
X306664Y212263D01*
X277338Y195326D02*
X279647Y193016D01*
X220566Y191096D02*
Y192969D01*
X220498Y193037D02*
X220566Y192969D01*
X220498Y193037D02*
Y209396D01*
X218530Y191045D02*
Y209396D01*
X327356Y219362D02*
Y221236D01*
X360033Y203958D02*
Y214150D01*
X122758Y85079D02*
X122781Y85056D01*
X122758Y85079D02*
Y93385D01*
X122734Y93408D02*
X122758Y93385D01*
X120025Y73850D02*
X150824D01*
X155337Y78363D01*
X116435Y77440D02*
X120025Y73850D01*
X116435Y77440D02*
Y93408D01*
X223298Y78751D02*
X237019Y65030D01*
X288380D01*
X238470Y66761D02*
X284825D01*
X226448Y78783D02*
X238470Y66761D01*
X288380Y65030D02*
X295848Y72499D01*
X284825Y66761D02*
X292776Y74712D01*
X283000Y195326D02*
X283087Y195238D01*
X300991D01*
X301078Y195151D01*
X341736D01*
X113286Y76075D02*
Y93408D01*
Y76075D02*
X118256Y71104D01*
X152535D01*
X106986Y79007D02*
Y93408D01*
X117053Y68940D02*
X154277D01*
X106986Y79007D02*
X117053Y68940D01*
X103837Y78886D02*
X115803Y66920D01*
X155788D01*
X103837Y78886D02*
Y93408D01*
X152535Y71104D02*
X162362Y80932D01*
X154277Y68940D02*
X166176Y80839D01*
X155788Y66920D02*
X169707Y80839D01*
X100687Y79189D02*
X114928Y64948D01*
X157900D01*
X173713Y80761D01*
X363970Y214150D02*
X367518D01*
X374091Y207576D01*
Y203958D02*
Y207576D01*
X366808Y203958D02*
X367005D01*
X308805Y223668D02*
X317080D01*
X308805Y230755D02*
X317080D01*
X320622D01*
X322267Y229110D02*
X327356D01*
X320622Y230755D02*
X322267Y229110D01*
X317080Y223668D02*
Y223865D01*
X318548Y225334D01*
X318745D01*
X320553Y227142D01*
X327356D01*
X201770Y228671D02*
X214593D01*
X166360Y193261D02*
X201770Y228671D01*
X169707Y193169D02*
X200493Y223955D01*
X211845D01*
X173500Y193085D02*
X200432Y220018D01*
X211845D01*
X403470Y225173D02*
X410508Y218135D01*
X371057Y225173D02*
X403470D01*
X371057Y223205D02*
X393664D01*
X398733Y218135D01*
X384491Y221236D02*
X387591Y218135D01*
X371057Y221236D02*
X384491D01*
X216561Y203467D02*
Y209396D01*
X222467D02*
X224435D01*
X222467D02*
X222468Y209394D01*
X344285Y197700D02*
Y214150D01*
X341736Y195151D02*
X344285Y197700D01*
X296983Y197858D02*
X340379D01*
X342317Y199796D01*
Y214150D01*
X336411Y208993D02*
Y214150D01*
X331377Y203958D02*
X336411Y208993D01*
X100687Y79189D02*
Y93408D01*
X91383Y77787D02*
X96500D01*
X96615Y77902D01*
X293086Y78995D02*
X302352Y69728D01*
X104836Y152841D02*
Y160984D01*
X100687Y138908D02*
Y145528D01*
X103837Y138908D02*
Y145770D01*
X106986Y138908D02*
Y147054D01*
X104836Y149204D02*
Y152841D01*
X100702Y148904D02*
X103837Y145770D01*
X104836Y149204D02*
X106986Y147054D01*
X110136Y138908D02*
Y147117D01*
X111923Y148904D01*
Y152841D02*
Y160984D01*
Y148904D02*
Y152841D01*
X97537Y148677D02*
Y172752D01*
X104836Y160984D02*
Y167401D01*
X97537Y148677D02*
X100687Y145528D01*
X127421Y164921D02*
Y172752D01*
X127378Y172795D02*
X127421Y172752D01*
X100702Y148904D02*
Y175475D01*
X325500Y279515D02*
X331969D01*
Y271518D02*
Y279515D01*
X339056Y271518D02*
Y279515D01*
X218530Y228671D02*
Y233000D01*
X224435Y228671D02*
Y236386D01*
X222467Y228671D02*
Y233000D01*
X231120Y216081D02*
X235897D01*
X299200Y238953D02*
X327356D01*
X299188Y238965D02*
X299200Y238953D01*
X299188Y230755D02*
Y238965D01*
X336411Y269070D02*
X338859Y271518D01*
X336411Y257850D02*
Y269070D01*
X339056Y271518D02*
X339170Y271404D01*
X338859Y271518D02*
X339056D01*
X304533Y256373D02*
X310773D01*
X301891Y259015D02*
X304533Y256373D01*
X323045Y246827D02*
X327356D01*
X313499Y256373D02*
X323045Y246827D01*
X310773Y256373D02*
X313499D01*
X317881Y244858D02*
X327356D01*
X317860Y244837D02*
X317881Y244858D01*
X310773Y244837D02*
Y252042D01*
Y244837D02*
X310773Y244837D01*
X301694Y250977D02*
X302759Y252042D01*
X310773D01*
X371070Y250764D02*
X375753D01*
X380850Y255861D02*
X383706D01*
X375753Y250764D02*
X380850Y255861D01*
X371057Y242890D02*
X407029D01*
X371057Y244858D02*
X407696D01*
X383685Y248795D02*
X383706Y248774D01*
X371057Y248795D02*
X383685D01*
X332166Y271518D02*
X333634Y270050D01*
Y269853D02*
Y270050D01*
Y269853D02*
X334442Y269045D01*
Y257850D02*
Y269045D01*
X331969Y271518D02*
X332166D01*
D55*
X369055Y138764D02*
Y146423D01*
X365905Y138764D02*
Y147991D01*
X366655Y148741D01*
X369055Y146423D02*
X373742Y151110D01*
X366655Y148741D02*
Y156903D01*
X373742Y151110D02*
Y156903D01*
X366655D02*
Y164777D01*
X366634Y164798D02*
X366655Y164777D01*
X366634Y164798D02*
Y172629D01*
X409015Y182458D02*
X410508Y183951D01*
X334217Y86837D02*
Y90450D01*
X337032Y93264D01*
X343858Y84864D02*
Y93264D01*
X337032D02*
X340709D01*
X372205D02*
X377876D01*
X379413Y86379D02*
Y91727D01*
X377876Y93264D02*
X379413Y91727D01*
X366612Y172651D02*
Y181363D01*
Y172651D02*
X366634Y172629D01*
X366612Y181363D02*
X366634Y181385D01*
X248807Y78544D02*
X254446D01*
X244870D02*
X248807D01*
X254446D02*
X256630Y76360D01*
X263914D02*
X268655D01*
X256630D02*
X256827D01*
Y81047D01*
X242903Y181424D02*
X242924Y181445D01*
X242903Y172711D02*
Y181424D01*
X242946Y148802D02*
Y156963D01*
Y164837D01*
X242924Y164859D02*
X242946Y164837D01*
X242924Y164859D02*
Y172690D01*
X242903Y172711D02*
X242924Y172690D01*
X242196Y148052D02*
X242946Y148802D01*
X248838Y87715D02*
Y87724D01*
X248851Y84155D02*
Y87703D01*
X248838Y87715D02*
X248851Y87703D01*
X248807Y83662D02*
Y84111D01*
X248851Y84155D01*
X248495Y93325D02*
X254167D01*
X232747Y87531D02*
Y93325D01*
X254167D02*
X255703Y91788D01*
Y86440D02*
Y91788D01*
X242196Y138825D02*
Y148052D01*
X245346Y138825D02*
Y146483D01*
X210507Y90510D02*
X213322Y93325D01*
X220149Y84925D02*
Y93325D01*
X210507Y86897D02*
Y90510D01*
X213322Y93325D02*
X216999D01*
X245346Y146483D02*
X250033Y151170D01*
Y156963D01*
X131545Y79938D02*
X133386Y81779D01*
X126718Y79938D02*
X131545D01*
X122781D02*
X126718D01*
X187361Y326861D02*
X322392D01*
X162110Y301610D02*
X187361Y326861D01*
X162110Y297710D02*
Y301610D01*
X307336Y269045D02*
X318970D01*
X299417Y276964D02*
X307336Y269045D01*
X299417Y276964D02*
Y289876D01*
X294534Y294759D02*
X299417Y289876D01*
X287692Y294759D02*
X294534D01*
X258639Y272594D02*
Y272791D01*
X181299Y335469D02*
X321253D01*
X160457Y314823D02*
X160653D01*
X181299Y335469D01*
X136791Y314992D02*
X145441D01*
X145540Y314922D02*
X153272D01*
X153370Y314823D01*
X145441Y315020D02*
X145540Y314922D01*
X146769Y297700D02*
X155014D01*
X155024Y297710D01*
X146759D02*
X146769Y297700D01*
X138652Y297710D02*
X146759D01*
X131000Y294028D02*
X134682Y297710D01*
X138652D01*
X131000Y277943D02*
Y294028D01*
X115769Y262713D02*
X131000Y277943D01*
X82500Y262713D02*
X115769D01*
X136762Y315020D02*
X136791Y314992D01*
X135581Y313839D02*
X135778D01*
X127900Y306158D02*
X135581Y313839D01*
X104371Y306158D02*
X127900D01*
X136762Y314823D02*
Y315020D01*
X135778Y313839D02*
X136762Y314823D01*
X82500Y284287D02*
X104371Y306158D01*
X116655Y314964D02*
X125375D01*
X102389D02*
X116655D01*
X82500Y295075D02*
X102389Y314964D01*
X145441Y322107D02*
Y328536D01*
X146769Y284045D02*
Y290614D01*
X122938Y284289D02*
Y290207D01*
X125375Y322050D02*
Y327692D01*
X140979Y77787D02*
X146360D01*
X126702Y88772D02*
X126718Y88756D01*
Y85056D02*
Y88756D01*
X126702Y88772D02*
Y88780D01*
X110136Y85934D02*
Y93408D01*
X410508Y183951D02*
Y196152D01*
X398733D02*
X410508D01*
X387591D02*
X398733D01*
X87896Y90594D02*
X90711Y93408D01*
X97537Y85009D02*
Y93408D01*
X87896Y86981D02*
Y90594D01*
X90711Y93408D02*
X94388D01*
X125884D02*
X131555D01*
X133092Y91871D01*
Y86523D02*
Y91871D01*
X119585Y138908D02*
Y148135D01*
X120335Y148885D01*
X127421Y151253D02*
Y157047D01*
X122734Y146566D02*
X127421Y151253D01*
X120335Y157047D02*
Y164921D01*
Y148885D02*
Y157047D01*
X120291Y172795D02*
X120313Y172773D01*
X122734Y138908D02*
Y146566D01*
X120313Y164942D02*
Y172773D01*
Y164942D02*
X120335Y164921D01*
X120291Y172795D02*
Y181507D01*
X120313Y181528D01*
D56*
X360033Y275578D02*
D03*
X370033D02*
D03*
D57*
X380033D02*
D03*
D58*
X263122Y317914D02*
D03*
X310531Y317500D02*
D03*
X381842Y317257D02*
D03*
D59*
X243437Y317914D02*
D03*
X290846Y317500D02*
D03*
X362158Y317257D02*
D03*
D60*
X406045Y253895D02*
D03*
Y236375D02*
D03*
D61*
X336257Y221236D02*
D03*
X187361Y236717D02*
D03*
X235727Y210065D02*
D03*
X249990Y178632D02*
D03*
X380850Y203958D02*
D03*
X341018Y172711D02*
D03*
X343157Y174398D02*
D03*
X356590Y87337D02*
D03*
X372910Y86940D02*
D03*
X351157Y167257D02*
D03*
X358244D02*
D03*
X359606Y144707D02*
D03*
X373699Y178632D02*
D03*
X392960Y76436D02*
D03*
X401749Y72792D02*
D03*
X404658Y70315D02*
D03*
X380213Y81173D02*
D03*
X337959Y77639D02*
D03*
X296983Y78995D02*
D03*
X312068Y67656D02*
D03*
X300779Y78822D02*
D03*
X295848Y72499D02*
D03*
X218548Y175391D02*
D03*
X234534Y167318D02*
D03*
X221646Y190017D02*
D03*
X217501D02*
D03*
X227448Y167318D02*
D03*
X220340Y172860D02*
D03*
X238470Y145168D02*
D03*
X220149Y143875D02*
D03*
X173713Y80761D02*
D03*
X232747Y87531D02*
D03*
X214486Y77493D02*
D03*
X248838Y87724D02*
D03*
X256827Y81047D02*
D03*
X289239Y79052D02*
D03*
X292776Y74712D02*
D03*
X293086Y78995D02*
D03*
X279306Y73014D02*
D03*
X268655Y76360D02*
D03*
X97537Y143958D02*
D03*
X133386Y81779D02*
D03*
X160466Y205609D02*
D03*
X338298Y263893D02*
D03*
X224408Y252866D02*
D03*
X116158Y149005D02*
D03*
X318970Y269045D02*
D03*
X251280Y279878D02*
D03*
X339056Y286450D02*
D03*
X116655Y327692D02*
D03*
X353035Y271518D02*
D03*
X145441Y328536D02*
D03*
X136762Y328671D02*
D03*
X146769Y284045D02*
D03*
X138652Y284208D02*
D03*
X122938Y284289D02*
D03*
X114342Y284414D02*
D03*
X125375Y327692D02*
D03*
X360475Y194678D02*
D03*
X405932Y65500D02*
D03*
X356096Y194839D02*
D03*
X353035Y203958D02*
D03*
X361856Y227211D02*
D03*
X334207Y235016D02*
D03*
X207764Y218049D02*
D03*
X360033Y267000D02*
D03*
X293086Y225334D02*
D03*
X347238Y225727D02*
D03*
X242431Y236386D02*
D03*
X352159Y224928D02*
D03*
X305547Y236000D02*
D03*
X239047Y234000D02*
D03*
X346253Y221236D02*
D03*
X244995Y227959D02*
D03*
X241188Y224705D02*
D03*
X367026Y197944D02*
D03*
X325930Y207895D02*
D03*
X340320Y221236D02*
D03*
X235897Y219268D02*
D03*
X203648Y216081D02*
D03*
X304325Y230755D02*
D03*
X277338Y199796D02*
D03*
X227772Y205609D02*
D03*
X389560Y255861D02*
D03*
Y248774D02*
D03*
X287000Y259015D02*
D03*
X285704Y238953D02*
D03*
X146360Y77787D02*
D03*
X126702Y88780D02*
D03*
X110136Y85934D02*
D03*
X111923Y167289D02*
D03*
X127378Y178474D02*
D03*
X187200Y229631D02*
D03*
X249453Y225068D02*
D03*
X340379Y247753D02*
D03*
X213993Y233000D02*
D03*
X199707Y209396D02*
D03*
Y214111D02*
D03*
X277338Y195326D02*
D03*
X287000Y197858D02*
D03*
X360033Y203958D02*
D03*
X155337Y78363D02*
D03*
X292177Y197776D02*
D03*
X283000Y195326D02*
D03*
X216561Y203467D02*
D03*
X296983Y197858D02*
D03*
X301078Y195151D02*
D03*
X296983Y193016D02*
D03*
X162362Y80932D02*
D03*
X173500Y193085D02*
D03*
X169707Y193169D02*
D03*
Y80839D02*
D03*
X166360Y193261D02*
D03*
X166176Y80839D02*
D03*
X91383Y77787D02*
D03*
X100702Y175475D02*
D03*
X97537Y172752D02*
D03*
X104836Y167401D02*
D03*
X325500Y279515D02*
D03*
X218530Y233000D02*
D03*
X224435Y236386D02*
D03*
X222467Y233000D02*
D03*
X235897Y216081D02*
D03*
D62*
X318128Y119309D02*
D03*
X306350Y134838D02*
D03*
Y127046D02*
D03*
Y119080D02*
D03*
X326158Y119309D02*
D03*
Y127101D02*
D03*
X318128D02*
D03*
X306515Y168774D02*
D03*
Y182958D02*
D03*
X335711Y187429D02*
D03*
X324364Y181879D02*
D03*
X330037Y187512D02*
D03*
Y181913D02*
D03*
X306515Y159818D02*
D03*
X306350Y151170D02*
D03*
X324364Y187429D02*
D03*
X335711Y181878D02*
D03*
X350157Y116914D02*
D03*
X368909Y116773D02*
D03*
X361709Y101551D02*
D03*
X368909D02*
D03*
Y109129D02*
D03*
X350157Y109270D02*
D03*
X361709Y109129D02*
D03*
X361592Y116773D02*
D03*
X350157Y101692D02*
D03*
X386766Y127146D02*
D03*
X394796Y119309D02*
D03*
X386766Y119353D02*
D03*
Y111354D02*
D03*
X394796D02*
D03*
Y127146D02*
D03*
X415850Y134338D02*
D03*
X409015Y159318D02*
D03*
Y182458D02*
D03*
X415850Y110691D02*
D03*
X409015Y168274D02*
D03*
X415850Y118580D02*
D03*
Y126546D02*
D03*
X408850Y118580D02*
D03*
Y126546D02*
D03*
Y134338D02*
D03*
X416015Y182458D02*
D03*
X408850Y150670D02*
D03*
Y110691D02*
D03*
X342958Y109270D02*
D03*
X318128Y111310D02*
D03*
X326158D02*
D03*
X342841Y116914D02*
D03*
X306350Y111191D02*
D03*
X342958Y101692D02*
D03*
X284350Y119080D02*
D03*
Y127046D02*
D03*
Y134838D02*
D03*
Y151170D02*
D03*
X284515Y159818D02*
D03*
Y182958D02*
D03*
Y168774D02*
D03*
X202047Y127211D02*
D03*
X194017D02*
D03*
X183506Y118918D02*
D03*
X202047Y119419D02*
D03*
X194017D02*
D03*
X183506Y126883D02*
D03*
X272936Y127018D02*
D03*
X264906D02*
D03*
Y119226D02*
D03*
X183672Y182796D02*
D03*
Y168612D02*
D03*
Y159656D02*
D03*
X183506Y134676D02*
D03*
Y151008D02*
D03*
X272936Y119182D02*
D03*
X176925Y111158D02*
D03*
X183506Y111029D02*
D03*
X245199Y116834D02*
D03*
X219131Y116975D02*
D03*
X219249Y101753D02*
D03*
X226448D02*
D03*
X219249Y109331D02*
D03*
X238000Y109190D02*
D03*
X245199D02*
D03*
X202047Y111420D02*
D03*
X237883Y116834D02*
D03*
X226448Y109331D02*
D03*
X245199Y101612D02*
D03*
X194017Y111408D02*
D03*
X226448Y116975D02*
D03*
X238000Y101612D02*
D03*
X272936Y111227D02*
D03*
X284350Y111191D02*
D03*
X264906Y111227D02*
D03*
X176925Y119047D02*
D03*
Y134805D02*
D03*
Y127013D02*
D03*
X177091Y182926D02*
D03*
Y159785D02*
D03*
Y168741D02*
D03*
X270932Y205204D02*
D03*
X263496D02*
D03*
X256060D02*
D03*
X248624D02*
D03*
X241188Y205332D02*
D03*
X159239Y111529D02*
D03*
Y119418D02*
D03*
Y127383D02*
D03*
Y135176D02*
D03*
Y151508D02*
D03*
X159405Y160156D02*
D03*
Y169112D02*
D03*
Y183296D02*
D03*
X51906Y110824D02*
D03*
Y118713D02*
D03*
Y126679D02*
D03*
Y134471D02*
D03*
Y150803D02*
D03*
X52072Y159451D02*
D03*
Y168407D02*
D03*
Y182591D02*
D03*
X68191Y119474D02*
D03*
X96140Y117058D02*
D03*
X68191Y126735D02*
D03*
X77604D02*
D03*
X103457Y117058D02*
D03*
X77604Y119474D02*
D03*
X115271Y116917D02*
D03*
X77604Y111193D02*
D03*
X103457Y109414D02*
D03*
X96258D02*
D03*
X103457Y101836D02*
D03*
X96258D02*
D03*
X115389Y101695D02*
D03*
Y109273D02*
D03*
X122588D02*
D03*
X148452Y111380D02*
D03*
X140422D02*
D03*
X122588Y101695D02*
D03*
X148452Y119334D02*
D03*
X140422Y119379D02*
D03*
Y127171D02*
D03*
X148452D02*
D03*
X122588Y116917D02*
D03*
X68191Y111193D02*
D03*
X134550Y50000D02*
D03*
X134554Y58030D02*
D03*
X141694D02*
D03*
Y50000D02*
D03*
X148958Y58030D02*
D03*
Y50000D02*
D03*
X256823Y50655D02*
D03*
X256827Y58685D02*
D03*
X263967D02*
D03*
Y50655D02*
D03*
X271232Y58685D02*
D03*
Y50655D02*
D03*
X394353Y50970D02*
D03*
Y59000D02*
D03*
X387089Y50970D02*
D03*
Y59000D02*
D03*
X379948D02*
D03*
X379945Y50970D02*
D03*
M02*
