G04*
G04 #@! TF.GenerationSoftware,Altium Limited,Altium Designer,21.8.1 (53)*
G04*
G04 Layer_Physical_Order=4*
G04 Layer_Color=16711680*
%FSLAX25Y25*%
%MOIN*%
G70*
G04*
G04 #@! TF.SameCoordinates,57A0437E-557E-4490-84B7-93440E4047FD*
G04*
G04*
G04 #@! TF.FilePolarity,Positive*
G04*
G01*
G75*
%ADD35C,0.06260*%
%ADD36R,0.06260X0.06260*%
%ADD37C,0.12008*%
%ADD38R,0.06260X0.06260*%
%ADD54C,0.01000*%
%ADD56C,0.05906*%
%ADD57R,0.05906X0.05906*%
%ADD58R,0.06299X0.06299*%
%ADD59C,0.06299*%
%ADD60O,0.04921X0.04134*%
%ADD61C,0.02000*%
%ADD62C,0.03937*%
%ADD75O,0.08268X0.05512*%
G36*
X325795Y210357D02*
X325603Y209895D01*
X325532D01*
X324797Y209591D01*
X324234Y209028D01*
X323930Y208293D01*
Y207498D01*
X324234Y206762D01*
X324797Y206200D01*
X325532Y205895D01*
X326328D01*
X327063Y206200D01*
X327625Y206762D01*
X327930Y207498D01*
Y207569D01*
X328392Y207760D01*
X339809Y196343D01*
Y178632D01*
X320230D01*
X302911Y195950D01*
X302773Y196284D01*
X302211Y196846D01*
X301878Y196984D01*
X298076Y200786D01*
X295464D01*
X295231Y200942D01*
X294841Y201020D01*
X284844D01*
X284454Y200942D01*
X284221Y200786D01*
X279092D01*
X279033Y200929D01*
X278471Y201491D01*
X277736Y201796D01*
X276940D01*
X276205Y201491D01*
X275642Y200929D01*
X275595Y200815D01*
X237359D01*
Y211544D01*
X324608D01*
X325795Y210357D01*
D02*
G37*
G36*
X250832Y89265D02*
X250332Y89058D01*
X249971Y89419D01*
X249236Y89724D01*
X248441D01*
X247706Y89419D01*
X247143Y88857D01*
X246838Y88121D01*
Y87326D01*
X247143Y86591D01*
X247706Y86028D01*
X248441Y85724D01*
X249236D01*
X249971Y86028D01*
X250332Y86389D01*
X250832Y86182D01*
Y47604D01*
X248838Y45610D01*
X241638D01*
X241608Y45627D01*
X240482Y45929D01*
X239316D01*
X238189Y45627D01*
X238160Y45610D01*
X237892D01*
Y45456D01*
X237179Y45044D01*
X236355Y44219D01*
X235772Y43210D01*
X235470Y42083D01*
Y40917D01*
X235772Y39790D01*
X236355Y38781D01*
X236689Y38446D01*
X236498Y37984D01*
X227248D01*
Y70740D01*
X233647Y77139D01*
Y85739D01*
X233880Y85835D01*
X234443Y86398D01*
X234747Y87133D01*
Y87928D01*
X234443Y88664D01*
X233880Y89226D01*
X233647Y89323D01*
Y120749D01*
X250832D01*
Y89265D01*
D02*
G37*
G36*
X373742Y47179D02*
X372063Y45500D01*
X366251D01*
X365840Y45610D01*
X364674D01*
X364263Y45500D01*
X360802D01*
Y37559D01*
X350157D01*
Y70315D01*
X355557Y75714D01*
Y85150D01*
X355972Y85428D01*
X356192Y85337D01*
X356988D01*
X357723Y85641D01*
X358286Y86204D01*
X358590Y86939D01*
Y87735D01*
X358286Y88470D01*
X357723Y89032D01*
X356988Y89337D01*
X356192D01*
X355972Y89246D01*
X355557Y89524D01*
Y120324D01*
X373742D01*
Y47179D01*
D02*
G37*
G36*
X127384Y90970D02*
X127100Y90780D01*
X126304D01*
X125569Y90476D01*
X125007Y89913D01*
X124702Y89178D01*
Y88382D01*
X125007Y87647D01*
X125569Y87085D01*
X126304Y86780D01*
X127100D01*
X127384Y86590D01*
Y47266D01*
X125956Y45838D01*
X125615Y45929D01*
X124449D01*
X123322Y45627D01*
X123251Y45587D01*
X116024D01*
X115954Y45627D01*
X114827Y45929D01*
X113661D01*
X112535Y45627D01*
X112464Y45587D01*
X109720D01*
Y37646D01*
X99787D01*
Y66389D01*
X110999Y77601D01*
Y84126D01*
X111269Y84238D01*
X111831Y84801D01*
X112136Y85536D01*
Y86331D01*
X111831Y87067D01*
X111269Y87629D01*
X110999Y87741D01*
Y98417D01*
Y120408D01*
X111005Y120411D01*
X127384D01*
Y90970D01*
D02*
G37*
G36*
X152867Y45697D02*
X128405D01*
X128405Y87666D01*
X128702Y88382D01*
Y89178D01*
X128405Y89895D01*
X128405Y129917D01*
X152867Y129917D01*
Y45697D01*
D02*
G37*
G36*
X398206Y103088D02*
X397181Y102063D01*
X396960Y101732D01*
X396882Y101342D01*
Y70764D01*
X396960Y70374D01*
X397181Y70043D01*
X399225Y67999D01*
Y50518D01*
X394374Y45667D01*
X388312D01*
X388028Y45610D01*
X374763D01*
X374763Y129831D01*
X398206Y129831D01*
Y103088D01*
D02*
G37*
G36*
X276315Y45610D02*
X252425D01*
X252396Y45627D01*
X251853Y45773D01*
X251853Y130256D01*
X276315Y130256D01*
Y45610D01*
D02*
G37*
G36*
X231146Y120415D02*
X231051Y88662D01*
X230747Y87928D01*
Y87133D01*
X231045Y86415D01*
X231011Y75269D01*
X226865Y71122D01*
X226707Y70740D01*
X226707Y70740D01*
Y45226D01*
X226392Y45044D01*
X225567Y44219D01*
X224984Y43210D01*
X224682Y42083D01*
Y40917D01*
X224984Y39790D01*
X225567Y38781D01*
X226392Y37956D01*
X226821Y37708D01*
X226865Y37601D01*
X227248Y37443D01*
X227281D01*
X227402Y37373D01*
X228528Y37071D01*
X229695D01*
X230398Y37259D01*
X230896Y36875D01*
X230885Y32906D01*
X230378Y32028D01*
X230076Y30902D01*
Y29736D01*
X230378Y28609D01*
X230869Y27758D01*
X230866Y26537D01*
X218865D01*
Y35591D01*
X218707Y35973D01*
X218324Y36132D01*
X208934D01*
Y120769D01*
X230793D01*
X231146Y120415D01*
D02*
G37*
G36*
X107698Y120076D02*
X107563Y74930D01*
X99404Y66772D01*
X99246Y66389D01*
X99246Y66389D01*
Y42897D01*
X99028Y42083D01*
Y40917D01*
X99246Y40102D01*
Y37646D01*
X99404Y37263D01*
X99787Y37104D01*
X102749D01*
X102874Y37071D01*
X104040D01*
X104165Y37104D01*
X107096D01*
X107449Y36750D01*
X107442Y34527D01*
X107141Y34446D01*
X106131Y33863D01*
X105306Y33038D01*
X104723Y32028D01*
X104421Y30902D01*
Y29736D01*
X104723Y28609D01*
X105306Y27599D01*
X106131Y26775D01*
X106292Y26682D01*
X106163Y26199D01*
X91705D01*
Y34748D01*
X91376D01*
X91343Y34829D01*
X90960Y34987D01*
X85486D01*
Y120431D01*
X107345D01*
X107698Y120076D01*
D02*
G37*
G36*
X354056Y119990D02*
X353921Y74844D01*
X349775Y70697D01*
X349616Y70315D01*
X349616Y70315D01*
Y37559D01*
X349775Y37176D01*
X350157Y37018D01*
X352894D01*
X353807Y36773D01*
X353775Y26112D01*
X343259D01*
Y34429D01*
X343100Y34812D01*
X342718Y34970D01*
X331843D01*
Y120344D01*
X353703D01*
X354056Y119990D01*
D02*
G37*
G36*
X207764Y130254D02*
Y35591D01*
X218324D01*
Y25996D01*
X190659D01*
X190642Y30891D01*
X191005Y31254D01*
X191804Y32450D01*
X192354Y33779D01*
X192635Y35190D01*
Y36629D01*
X192354Y38040D01*
X191804Y39369D01*
X191005Y40565D01*
X190608Y40962D01*
X190306Y129900D01*
X190659Y130254D01*
X207764Y130254D01*
D02*
G37*
G36*
X330674Y129829D02*
Y34429D01*
X342718D01*
Y25571D01*
X314509D01*
X314496Y29350D01*
X315346Y29918D01*
X316363Y30935D01*
X317162Y32131D01*
X317713Y33460D01*
X317993Y34871D01*
Y36310D01*
X317713Y37721D01*
X317162Y39050D01*
X316363Y40246D01*
X315346Y41263D01*
X314454Y41859D01*
X314157Y129475D01*
X314510Y129829D01*
X330674Y129829D01*
D02*
G37*
G36*
X84316Y34446D02*
X90960D01*
Y25000D01*
X63003D01*
Y29382D01*
X63137Y29438D01*
X64333Y30237D01*
X65350Y31254D01*
X66149Y32450D01*
X66700Y33779D01*
X66980Y35190D01*
Y36629D01*
X66700Y38040D01*
X66149Y39369D01*
X65350Y40565D01*
X64333Y41582D01*
X63137Y42381D01*
X63003Y42437D01*
Y129915D01*
X84316D01*
X84316Y34446D01*
D02*
G37*
%LPC*%
G36*
X146758Y79787D02*
X145963D01*
X145227Y79482D01*
X144665Y78920D01*
X144360Y78185D01*
Y77389D01*
X144665Y76654D01*
X145227Y76091D01*
X145963Y75787D01*
X146758D01*
X147493Y76091D01*
X148056Y76654D01*
X148360Y77389D01*
Y78185D01*
X148056Y78920D01*
X147493Y79482D01*
X146758Y79787D01*
D02*
G37*
G36*
X393358Y78436D02*
X392562D01*
X391827Y78131D01*
X391264Y77569D01*
X390960Y76833D01*
Y76038D01*
X391264Y75303D01*
X391827Y74740D01*
X392562Y74436D01*
X393358D01*
X394093Y74740D01*
X394655Y75303D01*
X394960Y76038D01*
Y76833D01*
X394655Y77569D01*
X394093Y78131D01*
X393358Y78436D01*
D02*
G37*
G36*
X269053Y78360D02*
X268257D01*
X267522Y78055D01*
X266960Y77493D01*
X266655Y76758D01*
Y75962D01*
X266960Y75227D01*
X267522Y74664D01*
X268257Y74360D01*
X269053D01*
X269788Y74664D01*
X270351Y75227D01*
X270655Y75962D01*
Y76758D01*
X270351Y77493D01*
X269788Y78055D01*
X269053Y78360D01*
D02*
G37*
G36*
X214883Y79493D02*
X214088D01*
X213353Y79188D01*
X212790Y78626D01*
X212486Y77891D01*
Y77095D01*
X212790Y76360D01*
X213353Y75797D01*
X214088Y75493D01*
X214883D01*
X215618Y75797D01*
X216181Y76360D01*
X216486Y77095D01*
Y77891D01*
X216181Y78626D01*
X215618Y79188D01*
X214883Y79493D01*
D02*
G37*
G36*
X218907Y45929D02*
X217741D01*
X216615Y45627D01*
X215604Y45044D01*
X214780Y44219D01*
X214197Y43210D01*
X213895Y42083D01*
Y40917D01*
X214197Y39790D01*
X214780Y38781D01*
X215604Y37956D01*
X216615Y37373D01*
X217741Y37071D01*
X218907D01*
X220034Y37373D01*
X221044Y37956D01*
X221868Y38781D01*
X222451Y39790D01*
X222753Y40917D01*
Y42083D01*
X222451Y43210D01*
X221868Y44219D01*
X221044Y45044D01*
X220034Y45627D01*
X218907Y45929D01*
D02*
G37*
G36*
X91781Y79787D02*
X90985D01*
X90250Y79482D01*
X89688Y78920D01*
X89383Y78185D01*
Y77389D01*
X89688Y76654D01*
X90250Y76091D01*
X90985Y75787D01*
X91781D01*
X92516Y76091D01*
X93079Y76654D01*
X93383Y77389D01*
Y78185D01*
X93079Y78920D01*
X92516Y79482D01*
X91781Y79787D01*
D02*
G37*
G36*
X93252Y45929D02*
X92086D01*
X90960Y45627D01*
X89950Y45044D01*
X89125Y44219D01*
X88542Y43210D01*
X88240Y42083D01*
Y40917D01*
X88542Y39790D01*
X89125Y38781D01*
X89950Y37956D01*
X90960Y37373D01*
X92086Y37071D01*
X93252D01*
X94379Y37373D01*
X95389Y37956D01*
X96214Y38781D01*
X96797Y39790D01*
X97098Y40917D01*
Y42083D01*
X96797Y43210D01*
X96214Y44219D01*
X95389Y45044D01*
X94379Y45627D01*
X93252Y45929D01*
D02*
G37*
G36*
X338356Y79638D02*
X337561D01*
X336826Y79334D01*
X336263Y78771D01*
X335959Y78036D01*
Y77241D01*
X336263Y76506D01*
X336826Y75943D01*
X337561Y75639D01*
X338356D01*
X339091Y75943D01*
X339654Y76506D01*
X339959Y77241D01*
Y78036D01*
X339654Y78771D01*
X339091Y79334D01*
X338356Y79638D01*
D02*
G37*
G36*
X344265Y45610D02*
X343099D01*
X341973Y45308D01*
X340963Y44725D01*
X340138Y43901D01*
X339555Y42891D01*
X339253Y41764D01*
Y40598D01*
X339555Y39472D01*
X340138Y38462D01*
X340963Y37637D01*
X341973Y37054D01*
X343099Y36752D01*
X344265D01*
X345392Y37054D01*
X346402Y37637D01*
X347226Y38462D01*
X347810Y39472D01*
X348111Y40598D01*
Y41764D01*
X347810Y42891D01*
X347226Y43901D01*
X346402Y44725D01*
X345392Y45308D01*
X344265Y45610D01*
D02*
G37*
%LPD*%
D35*
X71319Y289681D02*
D03*
Y278894D02*
D03*
Y268106D02*
D03*
Y257319D02*
D03*
X82500Y295075D02*
D03*
Y284287D02*
D03*
Y273500D02*
D03*
Y262713D02*
D03*
X376044Y41181D02*
D03*
X365257D02*
D03*
X354470D02*
D03*
X343682D02*
D03*
X381438Y30000D02*
D03*
X370651D02*
D03*
X359863D02*
D03*
X349076D02*
D03*
X250686Y41500D02*
D03*
X239899D02*
D03*
X229111D02*
D03*
X218324D02*
D03*
X256080Y30319D02*
D03*
X245292D02*
D03*
X234505D02*
D03*
X223718D02*
D03*
X125032Y41500D02*
D03*
X114244D02*
D03*
X103457D02*
D03*
X92669D02*
D03*
X130425Y30319D02*
D03*
X119638D02*
D03*
X108851D02*
D03*
X98063D02*
D03*
D36*
X82500Y251925D02*
D03*
D37*
X76910Y224327D02*
D03*
Y322713D02*
D03*
X310690Y35591D02*
D03*
X409076D02*
D03*
X185332Y35909D02*
D03*
X283718D02*
D03*
X59677D02*
D03*
X158063D02*
D03*
D38*
X338288Y30000D02*
D03*
X212930Y30319D02*
D03*
X87276D02*
D03*
D54*
X279306Y73014D02*
X284664Y67656D01*
X312068D01*
X337990Y223567D02*
X340320Y221236D01*
X331912Y223567D02*
X337990D01*
X327613Y219268D02*
X331912Y223567D01*
X327841Y225702D02*
X341788D01*
X324126Y221986D02*
X327841Y225702D01*
X245889Y221986D02*
X324126D01*
X341788Y225702D02*
X346253Y221236D01*
X345283Y227681D02*
X347238Y225727D01*
X296969Y227681D02*
X345283D01*
X295979Y228671D02*
X296969Y227681D01*
X306110Y238953D02*
X314882Y230181D01*
X347187D01*
X352159Y225210D01*
X356386Y232681D02*
X361856Y227211D01*
X316272Y232681D02*
X356386D01*
X307708Y241245D02*
X316272Y232681D01*
X235897Y219268D02*
X327613D01*
X235897Y216081D02*
X330086D01*
X343157Y203010D01*
X300779Y77429D02*
Y78822D01*
X296983Y78956D02*
Y78995D01*
X397902Y101342D02*
X399225Y102666D01*
X397902Y70764D02*
Y101342D01*
X359606Y144707D02*
X362522Y147623D01*
Y176888D01*
X356096Y191564D02*
X399225Y148435D01*
X353035Y186375D02*
X362522Y176888D01*
X404658Y70315D02*
Y154808D01*
X399225Y102666D02*
Y148435D01*
X401749Y72792D02*
Y153392D01*
X295848Y72499D02*
X300779Y77429D01*
X217501Y189746D02*
Y190017D01*
X218548Y175391D02*
Y188699D01*
X220340Y172860D02*
Y188644D01*
X221646Y189950D01*
Y190017D01*
X217501Y189746D02*
X218548Y188699D01*
X173607Y80867D02*
X173713Y80761D01*
X292776Y74712D02*
Y74750D01*
X136422Y205609D02*
X160466D01*
X327272Y252866D02*
X338298Y263893D01*
X224408Y252866D02*
X327272D01*
X116158Y185344D02*
X136422Y205609D01*
X116158Y149005D02*
Y185344D01*
X134624Y209396D02*
X199707D01*
X100702Y175475D02*
X134624Y209396D01*
X332358Y267000D02*
X360033D01*
X291088Y308270D02*
X332358Y267000D01*
X291088Y308270D02*
Y317257D01*
X290846Y317500D02*
X291088Y317257D01*
X310531Y317500D02*
X325500D01*
X353035Y271518D02*
Y289965D01*
X325500Y317500D02*
X353035Y289965D01*
X360475Y194666D02*
X401749Y153392D01*
X360475Y194666D02*
Y194678D01*
X397902Y70764D02*
X403166Y65500D01*
X405932D01*
X370651Y30000D02*
X371657Y31006D01*
X394796Y44647D02*
X405932Y55783D01*
Y65500D01*
X374671Y31006D02*
X388312Y44647D01*
X394796D01*
X371657Y31006D02*
X374671D01*
X353035Y186375D02*
Y203958D01*
X356096Y191564D02*
Y194839D01*
X324386Y244837D02*
X334207Y235016D01*
X218859Y218049D02*
X245647Y244837D01*
X324386D01*
X207764Y218049D02*
X218859D01*
X244995Y227959D02*
X253461D01*
X255694Y225727D02*
X286907D01*
X253461Y227959D02*
X255694Y225727D01*
X286907D02*
X289851Y228671D01*
X295979D01*
X291088Y241245D02*
X307708D01*
X286229Y236386D02*
X291088Y241245D01*
X242431Y236386D02*
X286229D01*
X352159Y224928D02*
Y225210D01*
X288017Y234000D02*
X292970Y238953D01*
X306110D01*
X288941Y231079D02*
X293862Y236000D01*
X305547D01*
X239047Y234000D02*
X288017D01*
X203648Y216081D02*
X227737D01*
X242735Y231079D02*
X288941D01*
X227737Y216081D02*
X242735Y231079D01*
X243171Y224705D02*
X245889Y221986D01*
X241188Y224705D02*
X243171D01*
X226585Y213491D02*
X326334D01*
X341018Y198808D01*
X216561Y203467D02*
X226585Y213491D01*
X224224Y199796D02*
X277338D01*
X168867Y200000D02*
X224020D01*
X224224Y199796D01*
X284844Y200000D02*
X294841D01*
X170599Y197500D02*
X282344D01*
X284844Y200000D01*
X341018Y172711D02*
Y198808D01*
X343157Y174398D02*
Y203010D01*
X340320Y247694D02*
X340379Y247753D01*
X228686Y247694D02*
X340320D01*
X213993Y233000D02*
X228686Y247694D01*
X134931Y214111D02*
X199707D01*
X162128Y193261D02*
X168867Y200000D01*
X166360Y193261D02*
X170599Y197500D01*
X166268Y193169D02*
X166360Y193261D01*
X169707Y193169D02*
X171863Y195326D01*
X277338D01*
X173500Y193085D02*
X280760D01*
X283000Y195326D01*
X238470Y145168D02*
X287000Y193698D01*
Y197858D01*
X360033Y199433D02*
Y203958D01*
Y199433D02*
X404658Y154808D01*
X296474Y34326D02*
Y52062D01*
X182888Y23282D02*
X285430D01*
X296474Y34326D01*
X170819Y61756D02*
Y62881D01*
X155337Y78363D02*
X170819Y62881D01*
Y35351D02*
X182888Y23282D01*
X170819Y35351D02*
Y45773D01*
X296474Y52062D02*
X312068Y67656D01*
X170819Y45773D02*
Y62344D01*
X289239Y194839D02*
X292177Y197776D01*
X289239Y79052D02*
Y194839D01*
X300904Y78947D02*
Y194977D01*
X301078Y195151D01*
X294841Y200000D02*
X296983Y197858D01*
X293086Y78995D02*
Y193962D01*
X296983Y197858D01*
Y78995D02*
Y193016D01*
X162245Y81048D02*
X162362Y80932D01*
X162245Y81048D02*
Y193144D01*
X162128Y193261D02*
X162245Y193144D01*
X173607Y80867D02*
Y192979D01*
X173500Y193085D02*
X173607Y192979D01*
X169707Y80839D02*
Y193169D01*
X166176Y80839D02*
X166268Y80932D01*
Y193169D01*
X292776Y74750D02*
X296983Y78956D01*
X97537Y172752D02*
Y176717D01*
X134931Y214111D01*
D56*
X360033Y275578D02*
D03*
X370033D02*
D03*
D57*
X380033D02*
D03*
D58*
X263122Y317914D02*
D03*
X310531Y317500D02*
D03*
X381842Y317257D02*
D03*
D59*
X243437Y317914D02*
D03*
X290846Y317500D02*
D03*
X362158Y317257D02*
D03*
D60*
X406045Y253895D02*
D03*
Y236375D02*
D03*
D61*
X336257Y221236D02*
D03*
X187361Y236717D02*
D03*
X235727Y210065D02*
D03*
X249990Y178632D02*
D03*
X380850Y203958D02*
D03*
X341018Y172711D02*
D03*
X343157Y174398D02*
D03*
X356590Y87337D02*
D03*
X372910Y86940D02*
D03*
X351157Y167257D02*
D03*
X358244D02*
D03*
X359606Y144707D02*
D03*
X373699Y178632D02*
D03*
X392960Y76436D02*
D03*
X401749Y72792D02*
D03*
X404658Y70315D02*
D03*
X380213Y81173D02*
D03*
X337959Y77639D02*
D03*
X296983Y78995D02*
D03*
X312068Y67656D02*
D03*
X300779Y78822D02*
D03*
X295848Y72499D02*
D03*
X218548Y175391D02*
D03*
X234534Y167318D02*
D03*
X221646Y190017D02*
D03*
X217501D02*
D03*
X227448Y167318D02*
D03*
X220340Y172860D02*
D03*
X238470Y145168D02*
D03*
X220149Y143875D02*
D03*
X173713Y80761D02*
D03*
X232747Y87531D02*
D03*
X214486Y77493D02*
D03*
X248838Y87724D02*
D03*
X256827Y81047D02*
D03*
X289239Y79052D02*
D03*
X292776Y74712D02*
D03*
X293086Y78995D02*
D03*
X279306Y73014D02*
D03*
X268655Y76360D02*
D03*
X97537Y143958D02*
D03*
X133386Y81779D02*
D03*
X160466Y205609D02*
D03*
X338298Y263893D02*
D03*
X224408Y252866D02*
D03*
X116158Y149005D02*
D03*
X318970Y269045D02*
D03*
X251280Y279878D02*
D03*
X339056Y286450D02*
D03*
X116655Y327692D02*
D03*
X353035Y271518D02*
D03*
X145441Y328536D02*
D03*
X136762Y328671D02*
D03*
X146769Y284045D02*
D03*
X138652Y284208D02*
D03*
X122938Y284289D02*
D03*
X114342Y284414D02*
D03*
X125375Y327692D02*
D03*
X360475Y194678D02*
D03*
X405932Y65500D02*
D03*
X356096Y194839D02*
D03*
X353035Y203958D02*
D03*
X361856Y227211D02*
D03*
X334207Y235016D02*
D03*
X207764Y218049D02*
D03*
X360033Y267000D02*
D03*
X293086Y225334D02*
D03*
X347238Y225727D02*
D03*
X242431Y236386D02*
D03*
X352159Y224928D02*
D03*
X305547Y236000D02*
D03*
X239047Y234000D02*
D03*
X346253Y221236D02*
D03*
X244995Y227959D02*
D03*
X241188Y224705D02*
D03*
X367026Y197944D02*
D03*
X325930Y207895D02*
D03*
X340320Y221236D02*
D03*
X235897Y219268D02*
D03*
X203648Y216081D02*
D03*
X304325Y230755D02*
D03*
X277338Y199796D02*
D03*
X227772Y205609D02*
D03*
X389560Y255861D02*
D03*
Y248774D02*
D03*
X287000Y259015D02*
D03*
X285704Y238953D02*
D03*
X146360Y77787D02*
D03*
X126702Y88780D02*
D03*
X110136Y85934D02*
D03*
X111923Y167289D02*
D03*
X127378Y178474D02*
D03*
X187200Y229631D02*
D03*
X249453Y225068D02*
D03*
X340379Y247753D02*
D03*
X213993Y233000D02*
D03*
X199707Y209396D02*
D03*
Y214111D02*
D03*
X277338Y195326D02*
D03*
X287000Y197858D02*
D03*
X360033Y203958D02*
D03*
X155337Y78363D02*
D03*
X292177Y197776D02*
D03*
X283000Y195326D02*
D03*
X216561Y203467D02*
D03*
X296983Y197858D02*
D03*
X301078Y195151D02*
D03*
X296983Y193016D02*
D03*
X162362Y80932D02*
D03*
X173500Y193085D02*
D03*
X169707Y193169D02*
D03*
Y80839D02*
D03*
X166360Y193261D02*
D03*
X166176Y80839D02*
D03*
X91383Y77787D02*
D03*
X100702Y175475D02*
D03*
X97537Y172752D02*
D03*
X104836Y167401D02*
D03*
X325500Y279515D02*
D03*
X218530Y233000D02*
D03*
X224435Y236386D02*
D03*
X222467Y233000D02*
D03*
X235897Y216081D02*
D03*
D62*
X318128Y119309D02*
D03*
X306350Y134838D02*
D03*
Y127046D02*
D03*
Y119080D02*
D03*
X326158Y119309D02*
D03*
Y127101D02*
D03*
X318128D02*
D03*
X306515Y168774D02*
D03*
Y182958D02*
D03*
X335711Y187429D02*
D03*
X324364Y181879D02*
D03*
X330037Y187512D02*
D03*
Y181913D02*
D03*
X306515Y159818D02*
D03*
X306350Y151170D02*
D03*
X324364Y187429D02*
D03*
X335711Y181878D02*
D03*
X350157Y116914D02*
D03*
X368909Y116773D02*
D03*
X361709Y101551D02*
D03*
X368909D02*
D03*
Y109129D02*
D03*
X350157Y109270D02*
D03*
X361709Y109129D02*
D03*
X361592Y116773D02*
D03*
X350157Y101692D02*
D03*
X386766Y127146D02*
D03*
X394796Y119309D02*
D03*
X386766Y119353D02*
D03*
Y111354D02*
D03*
X394796D02*
D03*
Y127146D02*
D03*
X415850Y134338D02*
D03*
X409015Y159318D02*
D03*
Y182458D02*
D03*
X415850Y110691D02*
D03*
X409015Y168274D02*
D03*
X415850Y118580D02*
D03*
Y126546D02*
D03*
X408850Y118580D02*
D03*
Y126546D02*
D03*
Y134338D02*
D03*
X416015Y182458D02*
D03*
X408850Y150670D02*
D03*
Y110691D02*
D03*
X342958Y109270D02*
D03*
X318128Y111310D02*
D03*
X326158D02*
D03*
X342841Y116914D02*
D03*
X306350Y111191D02*
D03*
X342958Y101692D02*
D03*
X284350Y119080D02*
D03*
Y127046D02*
D03*
Y134838D02*
D03*
Y151170D02*
D03*
X284515Y159818D02*
D03*
Y182958D02*
D03*
Y168774D02*
D03*
X202047Y127211D02*
D03*
X194017D02*
D03*
X183506Y118918D02*
D03*
X202047Y119419D02*
D03*
X194017D02*
D03*
X183506Y126883D02*
D03*
X272936Y127018D02*
D03*
X264906D02*
D03*
Y119226D02*
D03*
X183672Y182796D02*
D03*
Y168612D02*
D03*
Y159656D02*
D03*
X183506Y134676D02*
D03*
Y151008D02*
D03*
X272936Y119182D02*
D03*
X176925Y111158D02*
D03*
X183506Y111029D02*
D03*
X245199Y116834D02*
D03*
X219131Y116975D02*
D03*
X219249Y101753D02*
D03*
X226448D02*
D03*
X219249Y109331D02*
D03*
X238000Y109190D02*
D03*
X245199D02*
D03*
X202047Y111420D02*
D03*
X237883Y116834D02*
D03*
X226448Y109331D02*
D03*
X245199Y101612D02*
D03*
X194017Y111408D02*
D03*
X226448Y116975D02*
D03*
X238000Y101612D02*
D03*
X272936Y111227D02*
D03*
X284350Y111191D02*
D03*
X264906Y111227D02*
D03*
X176925Y119047D02*
D03*
Y134805D02*
D03*
Y127013D02*
D03*
X177091Y182926D02*
D03*
Y159785D02*
D03*
Y168741D02*
D03*
X270932Y205204D02*
D03*
X263496D02*
D03*
X256060D02*
D03*
X248624D02*
D03*
X241188Y205332D02*
D03*
X159239Y111529D02*
D03*
Y119418D02*
D03*
Y127383D02*
D03*
Y135176D02*
D03*
Y151508D02*
D03*
X159405Y160156D02*
D03*
Y169112D02*
D03*
Y183296D02*
D03*
X51906Y110824D02*
D03*
Y118713D02*
D03*
Y126679D02*
D03*
Y134471D02*
D03*
Y150803D02*
D03*
X52072Y159451D02*
D03*
Y168407D02*
D03*
Y182591D02*
D03*
X68191Y119474D02*
D03*
X96140Y117058D02*
D03*
X68191Y126735D02*
D03*
X77604D02*
D03*
X103457Y117058D02*
D03*
X77604Y119474D02*
D03*
X115271Y116917D02*
D03*
X77604Y111193D02*
D03*
X103457Y109414D02*
D03*
X96258D02*
D03*
X103457Y101836D02*
D03*
X96258D02*
D03*
X115389Y101695D02*
D03*
Y109273D02*
D03*
X122588D02*
D03*
X148452Y111380D02*
D03*
X140422D02*
D03*
X122588Y101695D02*
D03*
X148452Y119334D02*
D03*
X140422Y119379D02*
D03*
Y127171D02*
D03*
X148452D02*
D03*
X122588Y116917D02*
D03*
X68191Y111193D02*
D03*
X134550Y50000D02*
D03*
X134554Y58030D02*
D03*
X141694D02*
D03*
Y50000D02*
D03*
X148958Y58030D02*
D03*
Y50000D02*
D03*
X256823Y50655D02*
D03*
X256827Y58685D02*
D03*
X263967D02*
D03*
Y50655D02*
D03*
X271232Y58685D02*
D03*
Y50655D02*
D03*
X394353Y50970D02*
D03*
Y59000D02*
D03*
X387089Y50970D02*
D03*
Y59000D02*
D03*
X379948D02*
D03*
X379945Y50970D02*
D03*
D75*
X418072Y228698D02*
D03*
Y261572D02*
D03*
M02*
