G04*
G04 #@! TF.GenerationSoftware,Altium Limited,Altium Designer,21.8.1 (53)*
G04*
G04 Layer_Physical_Order=2*
G04 Layer_Color=32768*
%FSLAX25Y25*%
%MOIN*%
G70*
G04*
G04 #@! TF.SameCoordinates,57A0437E-557E-4490-84B7-93440E4047FD*
G04*
G04*
G04 #@! TF.FilePolarity,Negative*
G04*
G01*
G75*
%ADD44C,0.04000*%
%ADD63C,0.04000*%
%ADD64C,0.07094*%
G04:AMPARAMS|DCode=65|XSize=100.945mil|YSize=100.945mil|CornerRadius=0mil|HoleSize=0mil|Usage=FLASHONLY|Rotation=0.000|XOffset=0mil|YOffset=0mil|HoleType=Round|Shape=Relief|Width=10mil|Gap=10mil|Entries=4|*
%AMTHD65*
7,0,0,0.10095,0.08094,0.01000,45*
%
%ADD65THD65*%
%ADD66C,0.15008*%
G04:AMPARAMS|DCode=67|XSize=95.433mil|YSize=95.433mil|CornerRadius=0mil|HoleSize=0mil|Usage=FLASHONLY|Rotation=0.000|XOffset=0mil|YOffset=0mil|HoleType=Round|Shape=Relief|Width=10mil|Gap=10mil|Entries=4|*
%AMTHD67*
7,0,0,0.09543,0.07543,0.01000,45*
%
%ADD67THD67*%
%ADD68C,0.06543*%
G04:AMPARAMS|DCode=69|XSize=103.307mil|YSize=103.307mil|CornerRadius=0mil|HoleSize=0mil|Usage=FLASHONLY|Rotation=0.000|XOffset=0mil|YOffset=0mil|HoleType=Round|Shape=Relief|Width=10mil|Gap=10mil|Entries=4|*
%AMTHD69*
7,0,0,0.10331,0.08331,0.01000,45*
%
%ADD69THD69*%
%ADD70C,0.07331*%
%ADD71O,0.06347X0.05559*%
%ADD72O,0.08906X0.06248*%
%ADD73O,0.08906X0.06248*%
%ADD74C,0.04969*%
D44*
X336257Y221236D02*
D03*
X187361Y236717D02*
D03*
X235727Y210065D02*
D03*
X380850Y203958D02*
D03*
X341018Y172711D02*
D03*
X343157Y174398D02*
D03*
X351157Y167257D02*
D03*
X359606Y144707D02*
D03*
X401749Y72792D02*
D03*
X404658Y70315D02*
D03*
X380213Y81173D02*
D03*
X296983Y78995D02*
D03*
X312068Y67656D02*
D03*
X300779Y78822D02*
D03*
X295848Y72499D02*
D03*
X218548Y175391D02*
D03*
X221646Y190017D02*
D03*
X217501D02*
D03*
X227448Y167318D02*
D03*
X220340Y172860D02*
D03*
X238470Y145168D02*
D03*
X173713Y80761D02*
D03*
X256827Y81047D02*
D03*
X289239Y79052D02*
D03*
X292776Y74712D02*
D03*
X293086Y78995D02*
D03*
X279306Y73014D02*
D03*
X133386Y81779D02*
D03*
X160466Y205609D02*
D03*
X338298Y263893D02*
D03*
X224408Y252866D02*
D03*
X116158Y149005D02*
D03*
X318970Y269045D02*
D03*
X353035Y271518D02*
D03*
X145441Y328536D02*
D03*
X146769Y284045D02*
D03*
X122938Y284289D02*
D03*
X125375Y327692D02*
D03*
X360475Y194678D02*
D03*
X405932Y65500D02*
D03*
X356096Y194839D02*
D03*
X353035Y203958D02*
D03*
X361856Y227211D02*
D03*
X334207Y235016D02*
D03*
X207764Y218049D02*
D03*
X360033Y267000D02*
D03*
X293086Y225334D02*
D03*
X347238Y225727D02*
D03*
X242431Y236386D02*
D03*
X352159Y224928D02*
D03*
X305547Y236000D02*
D03*
X239047Y234000D02*
D03*
X346253Y221236D02*
D03*
X244995Y227959D02*
D03*
X241188Y224705D02*
D03*
X340320Y221236D02*
D03*
X235897Y219268D02*
D03*
X203648Y216081D02*
D03*
X277338Y199796D02*
D03*
X389560Y255861D02*
D03*
X340379Y247753D02*
D03*
X213993Y233000D02*
D03*
X199707Y209396D02*
D03*
Y214111D02*
D03*
X277338Y195326D02*
D03*
X287000Y197858D02*
D03*
X360033Y203958D02*
D03*
X155337Y78363D02*
D03*
X292177Y197776D02*
D03*
X283000Y195326D02*
D03*
X216561Y203467D02*
D03*
X296983Y197858D02*
D03*
X301078Y195151D02*
D03*
X296983Y193016D02*
D03*
X162362Y80932D02*
D03*
X173500Y193085D02*
D03*
X169707Y193169D02*
D03*
Y80839D02*
D03*
X166360Y193261D02*
D03*
X166176Y80839D02*
D03*
X100702Y175475D02*
D03*
X97537Y172752D02*
D03*
X104836Y167401D02*
D03*
X325500Y279515D02*
D03*
X224435Y236386D02*
D03*
X235897Y216081D02*
D03*
D63*
X46000Y6500D02*
Y341500D01*
X423500D01*
Y6500D02*
Y341500D01*
X46000Y6500D02*
X423500D01*
D64*
X71319Y289681D02*
D03*
Y278894D02*
D03*
Y268106D02*
D03*
Y257319D02*
D03*
X82500Y295075D02*
D03*
Y284287D02*
D03*
Y273500D02*
D03*
Y262713D02*
D03*
X376044Y41181D02*
D03*
X365257D02*
D03*
X354470D02*
D03*
X343682D02*
D03*
X381438Y30000D02*
D03*
X370651D02*
D03*
X349076D02*
D03*
X338288D02*
D03*
X250686Y41500D02*
D03*
X239899D02*
D03*
X229111D02*
D03*
X218324D02*
D03*
X256080Y30319D02*
D03*
X245292D02*
D03*
X234505D02*
D03*
X223718D02*
D03*
X212930D02*
D03*
X125032Y41500D02*
D03*
X114244D02*
D03*
X103457D02*
D03*
X92669D02*
D03*
X130425Y30319D02*
D03*
X119638D02*
D03*
X108851D02*
D03*
X98063D02*
D03*
X87276D02*
D03*
D65*
X82500Y251925D02*
D03*
X359863Y30000D02*
D03*
D66*
X76910Y224327D02*
D03*
Y322713D02*
D03*
X310690Y35591D02*
D03*
X409076D02*
D03*
X185332Y35909D02*
D03*
X283718D02*
D03*
X59677D02*
D03*
X158063D02*
D03*
D67*
X360033Y275578D02*
D03*
D68*
X370033D02*
D03*
X380033D02*
D03*
D69*
X263122Y317914D02*
D03*
X381842Y317257D02*
D03*
D70*
X243437Y317914D02*
D03*
X310531Y317500D02*
D03*
X290846D02*
D03*
X362158Y317257D02*
D03*
D71*
X406045Y253895D02*
D03*
Y236375D02*
D03*
D72*
X418072Y228698D02*
D03*
D73*
Y261572D02*
D03*
D74*
X318128Y119309D02*
D03*
X326158D02*
D03*
Y127101D02*
D03*
X318128D02*
D03*
X335711Y187429D02*
D03*
X324364Y181879D02*
D03*
X330037Y187512D02*
D03*
Y181913D02*
D03*
X324364Y187429D02*
D03*
X335711Y181878D02*
D03*
X350157Y116914D02*
D03*
X368909Y116773D02*
D03*
X361709Y101551D02*
D03*
X368909D02*
D03*
Y109129D02*
D03*
X350157Y109270D02*
D03*
X361709Y109129D02*
D03*
X361592Y116773D02*
D03*
X350157Y101692D02*
D03*
X386766Y127146D02*
D03*
X394796Y119309D02*
D03*
X386766Y119353D02*
D03*
Y111354D02*
D03*
X394796D02*
D03*
Y127146D02*
D03*
X342958Y109270D02*
D03*
X318128Y111310D02*
D03*
X326158D02*
D03*
X342841Y116914D02*
D03*
X342958Y101692D02*
D03*
X202047Y127211D02*
D03*
X194017D02*
D03*
X202047Y119419D02*
D03*
X194017D02*
D03*
X272936Y127018D02*
D03*
X264906D02*
D03*
Y119226D02*
D03*
X272936Y119182D02*
D03*
X245199Y116834D02*
D03*
X219131Y116975D02*
D03*
X219249Y101753D02*
D03*
X226448D02*
D03*
X219249Y109331D02*
D03*
X238000Y109190D02*
D03*
X245199D02*
D03*
X202047Y111420D02*
D03*
X237883Y116834D02*
D03*
X226448Y109331D02*
D03*
X245199Y101612D02*
D03*
X194017Y111408D02*
D03*
X226448Y116975D02*
D03*
X238000Y101612D02*
D03*
X272936Y111227D02*
D03*
X264906D02*
D03*
X270932Y205204D02*
D03*
X263496D02*
D03*
X256060D02*
D03*
X248624D02*
D03*
X241188Y205332D02*
D03*
X68191Y119474D02*
D03*
X96140Y117058D02*
D03*
X68191Y126735D02*
D03*
X77604D02*
D03*
X103457Y117058D02*
D03*
X77604Y119474D02*
D03*
X115271Y116917D02*
D03*
X77604Y111193D02*
D03*
X103457Y109414D02*
D03*
X96258D02*
D03*
X103457Y101836D02*
D03*
X96258D02*
D03*
X115389Y101695D02*
D03*
Y109273D02*
D03*
X122588D02*
D03*
X148452Y111380D02*
D03*
X140422D02*
D03*
X122588Y101695D02*
D03*
X148452Y119334D02*
D03*
X140422Y119379D02*
D03*
Y127171D02*
D03*
X148452D02*
D03*
X122588Y116917D02*
D03*
X68191Y111193D02*
D03*
X134550Y50000D02*
D03*
X134554Y58030D02*
D03*
X141694D02*
D03*
Y50000D02*
D03*
X148958Y58030D02*
D03*
Y50000D02*
D03*
X256823Y50655D02*
D03*
X256827Y58685D02*
D03*
X263967D02*
D03*
Y50655D02*
D03*
X271232Y58685D02*
D03*
Y50655D02*
D03*
X394353Y50970D02*
D03*
Y59000D02*
D03*
X387089Y50970D02*
D03*
Y59000D02*
D03*
X379948D02*
D03*
X379945Y50970D02*
D03*
M02*
